<svg width="70" height="76" viewBox="0 0 70 76" fill="none" xmlns="http://www.w3.org/2000/svg">
<rect width="70" height="76" fill="black"/>
<path d="M15.6179 51.651L22.3032 58.3364L21.5198 59.1199L12.6277 57.5138L12.5624 57.5791L17.8115 62.8282L17.0019 63.6377L10.3166 56.9523L11.1 56.1689L20.0182 57.775L20.0835 57.7097L14.8214 52.4475L15.6179 51.651ZM26.0254 54.8232C25.5423 55.3063 25.0189 55.6164 24.4553 55.7535C23.8916 55.8863 23.3225 55.8547 22.748 55.6588C22.1735 55.4586 21.6294 55.1017 21.1158 54.5881C20.6022 54.0746 20.2432 53.5283 20.0386 52.9494C19.834 52.3662 19.7905 51.796 19.908 51.2389C20.0255 50.6775 20.3106 50.1704 20.7633 49.7177C21.0244 49.4566 21.3258 49.2422 21.6675 49.0747C22.0092 48.9071 22.3824 48.8168 22.7872 48.8037C23.1898 48.7885 23.6131 48.8788 24.057 49.0747C24.501 49.2705 24.9569 49.6024 25.4248 50.0703L25.7512 50.3967L21.8862 54.2617L21.2203 53.5958L24.3018 50.5142C24.0189 50.2313 23.7099 50.0355 23.3748 49.9267C23.0418 49.8157 22.7077 49.7993 22.3726 49.8777C22.0396 49.9539 21.7339 50.1312 21.4553 50.4098C21.1485 50.7166 20.9591 51.0583 20.8873 51.4348C20.8155 51.8069 20.8405 52.1736 20.9624 52.5349C21.0843 52.8961 21.2834 53.2149 21.5598 53.4913L22.0037 53.9353C22.3824 54.3139 22.7687 54.5696 23.1626 54.7024C23.5565 54.8308 23.9395 54.846 24.3116 54.7481C24.6816 54.648 25.0222 54.4423 25.3334 54.1311C25.5358 53.9287 25.6903 53.7176 25.7969 53.4979C25.9035 53.2737 25.959 53.0441 25.9634 52.8091C25.9656 52.5719 25.9122 52.3336 25.8034 52.0942L26.7566 51.5588C26.9307 51.8896 27.021 52.2433 27.0276 52.6197C27.0319 52.9941 26.9514 53.3705 26.786 53.7492C26.6184 54.1257 26.3649 54.4837 26.0254 54.8232ZM30.2788 46.2608L27.3148 43.2968L28.0852 42.5264L33.0992 47.5404L32.3289 48.3108L31.4801 47.4621L31.4279 47.5143C31.565 47.8864 31.5987 48.2858 31.5291 48.7123C31.4573 49.1367 31.232 49.5382 30.8534 49.9169C30.54 50.2302 30.1929 50.4402 29.812 50.5469C29.429 50.6513 29.0286 50.6339 28.6108 50.4947C28.1908 50.3532 27.7675 50.0692 27.3409 49.6427L24.1549 46.4567L24.9253 45.6863L28.0591 48.82C28.4247 49.1857 28.8186 49.375 29.2408 49.388C29.6651 49.3989 30.0373 49.2444 30.3572 48.9245C30.5487 48.733 30.6945 48.4893 30.7946 48.1933C30.8969 47.8952 30.9143 47.5774 30.8468 47.2401C30.7816 46.9006 30.5922 46.5742 30.2788 46.2608ZM34.5102 46.1294L29.4962 41.1154L30.2405 40.3711L30.9978 41.1284L31.05 41.0762C30.8934 40.7367 30.8574 40.37 30.9423 39.9761C31.0272 39.5822 31.2198 39.2351 31.5201 38.9348C31.5767 38.8782 31.6485 38.8086 31.7356 38.7259C31.8226 38.6432 31.8901 38.5823 31.9379 38.5431L32.7214 39.3265C32.6887 39.3461 32.6191 39.3962 32.5125 39.4767C32.4058 39.5529 32.3014 39.6421 32.1991 39.7444C31.9554 39.9881 31.7889 40.2569 31.6996 40.5507C31.6104 40.8401 31.5995 41.1295 31.667 41.419C31.7345 41.7041 31.8814 41.9598 32.1077 42.1861L35.2806 45.359L34.5102 46.1294ZM39.5235 41.3512C39.2057 41.669 38.8575 41.8975 38.4789 42.0367C38.098 42.1738 37.7172 42.2043 37.3364 42.1281C36.9533 42.0498 36.5986 41.8474 36.2722 41.521C35.9849 41.2337 35.8086 40.9443 35.7434 40.6527C35.6759 40.3589 35.6857 40.0662 35.7727 39.7746C35.8598 39.4829 35.9925 39.1979 36.171 38.9193C36.3494 38.6364 36.5399 38.3633 36.7422 38.0999C37.0077 37.7561 37.2254 37.4797 37.3951 37.2708C37.5649 37.0575 37.6682 36.8823 37.7052 36.7452C37.7444 36.606 37.702 36.4743 37.5779 36.3503L37.5518 36.3241C37.2297 36.0021 36.8913 35.8399 36.5366 35.8378C36.184 35.8334 35.8304 36.0086 35.4757 36.3633C35.1079 36.7311 34.9001 37.1 34.8522 37.4699C34.8043 37.8399 34.8293 38.1587 34.9273 38.4264L33.9349 38.8964C33.7608 38.4612 33.6977 38.0499 33.7456 37.6625C33.7935 37.2708 33.9131 36.9117 34.1047 36.5853C34.2962 36.2545 34.5181 35.9629 34.7706 35.7104C34.9316 35.5494 35.1362 35.384 35.3843 35.2143C35.6324 35.0402 35.9131 34.9139 36.2265 34.8356C36.542 34.7551 36.8837 34.7681 37.2515 34.8748C37.6193 34.9814 38.0023 35.2339 38.4005 35.6321L41.704 38.9356L40.9337 39.706L40.2547 39.027L40.2155 39.0662C40.2721 39.2272 40.3015 39.4307 40.3036 39.6766C40.3058 39.9225 40.2492 40.1902 40.1339 40.4797C40.0186 40.7691 39.8151 41.0596 39.5235 41.3512ZM38.9489 40.5417C39.2536 40.237 39.4506 39.9204 39.5398 39.5918C39.6312 39.261 39.6355 38.9476 39.5528 38.6516C39.4723 38.3535 39.3276 38.0999 39.1187 37.891L38.4136 37.1859C38.4201 37.2577 38.3842 37.3655 38.3059 37.5091C38.2275 37.6484 38.1285 37.8018 38.0088 37.9694C37.8891 38.1326 37.7705 38.2904 37.653 38.4427C37.5355 38.5907 37.4408 38.7115 37.369 38.805C37.1949 39.0314 37.0502 39.261 36.9348 39.4938C36.8195 39.7223 36.7662 39.9476 36.7749 40.1695C36.7836 40.3872 36.8859 40.5939 37.0817 40.7898C37.3494 41.0574 37.6508 41.1608 37.986 41.0999C38.3211 41.0346 38.6421 40.8485 38.9489 40.5417ZM45.1079 35.7406C44.6901 36.1585 44.2157 36.4218 43.6847 36.5306C43.1515 36.6372 42.6009 36.5872 42.0329 36.3805C41.4628 36.1715 40.9122 35.8016 40.3812 35.2706C39.8545 34.7439 39.4878 34.1966 39.2811 33.6286C39.0743 33.0606 39.0265 32.51 39.1375 31.9769C39.2484 31.4437 39.515 30.966 39.9372 30.5438C40.2637 30.2174 40.5759 30.0139 40.8741 29.9334C41.1722 29.8485 41.4399 29.8246 41.6771 29.8616C41.9143 29.8942 42.1047 29.9258 42.2484 29.9562L42.3137 29.8909L39.8458 27.4231L40.6162 26.6527L47.3016 33.3381L46.5573 34.0824L45.7869 33.312L45.6955 33.4034C45.7303 33.5514 45.7652 33.7472 45.8 33.991C45.8326 34.2325 45.8065 34.5045 45.7216 34.807C45.6346 35.1074 45.43 35.4186 45.1079 35.7406ZM44.5204 34.9441C44.8294 34.6351 45.01 34.2935 45.0622 33.9191C45.1123 33.5427 45.0492 33.1553 44.8729 32.757C44.6945 32.3566 44.4159 31.9671 44.0372 31.5884C43.6629 31.2141 43.281 30.941 42.8914 30.769C42.4997 30.595 42.1189 30.5362 41.7489 30.5928C41.3768 30.6472 41.034 30.8311 40.7207 31.1444C40.3942 31.4709 40.206 31.8267 40.1559 32.2119C40.1059 32.5927 40.169 32.9801 40.3453 33.374C40.5215 33.7635 40.7859 34.1346 41.1385 34.4871C41.4954 34.844 41.8741 35.1139 42.2745 35.2967C42.6749 35.4751 43.0688 35.5426 43.4562 35.4991C43.8435 35.4512 44.1983 35.2662 44.5204 34.9441ZM51.0262 29.8224C50.5431 30.3055 50.0197 30.6156 49.456 30.7527C48.8924 30.8855 48.3233 30.8539 47.7488 30.6581C47.1743 30.4578 46.6302 30.1009 46.1166 29.5874C45.603 29.0738 45.2439 28.5275 45.0394 27.9487C44.8348 27.3654 44.7913 26.7953 44.9088 26.2381C45.0263 25.6767 45.3114 25.1696 45.7641 24.717C46.0252 24.4558 46.3266 24.2415 46.6683 24.0739C47.01 23.9063 47.3832 23.816 47.788 23.8029C48.1906 23.7877 48.6138 23.878 49.0578 24.0739C49.5017 24.2697 49.9577 24.6016 50.4255 25.0695L50.752 25.3959L46.887 29.2609L46.2211 28.595L49.3026 25.5135C49.0197 25.2305 48.7107 25.0347 48.3755 24.9259C48.0426 24.8149 47.7085 24.7986 47.3734 24.8769C47.0404 24.9531 46.7347 25.1304 46.4561 25.409C46.1493 25.7158 45.9599 26.0575 45.8881 26.434C45.8163 26.8061 45.8413 27.1728 45.9632 27.5341C46.0851 27.8953 46.2842 28.2142 46.5606 28.4905L47.0045 28.9345C47.3832 29.3132 47.7695 29.5689 48.1634 29.7016C48.5573 29.83 48.9403 29.8452 49.3124 29.7473C49.6824 29.6472 50.0229 29.4415 50.3341 29.1303C50.5365 28.928 50.691 28.7169 50.7977 28.4971C50.9043 28.2729 50.9598 28.0433 50.9642 27.8083C50.9663 27.5711 50.913 27.3328 50.8042 27.0934L51.7574 26.558C51.9315 26.8888 52.0218 27.2425 52.0283 27.619C52.0327 27.9933 51.9522 28.3698 51.7868 28.7484C51.6192 29.1249 51.3657 29.4829 51.0262 29.8224ZM55.7627 25.1119C55.445 25.4297 55.0968 25.6582 54.7182 25.7975C54.3373 25.9346 53.9565 25.965 53.5756 25.8889C53.1926 25.8105 52.8379 25.6081 52.5115 25.2817C52.2242 24.9944 52.0479 24.705 51.9826 24.4134C51.9152 24.1196 51.925 23.8269 52.012 23.5353C52.0991 23.2437 52.2318 22.9586 52.4103 22.68C52.5887 22.3971 52.7791 22.124 52.9815 21.8607C53.247 21.5168 53.4647 21.2404 53.6344 21.0315C53.8041 20.8182 53.9075 20.6431 53.9445 20.506C53.9837 20.3667 53.9412 20.235 53.8172 20.111L53.7911 20.0849C53.469 19.7628 53.1306 19.6006 52.7759 19.5985C52.4233 19.5941 52.0697 19.7693 51.715 20.124C51.3472 20.4918 51.1394 20.8607 51.0915 21.2306C51.0436 21.6006 51.0686 21.9194 51.1666 22.1871L50.1742 22.6572C50.0001 22.2219 49.937 21.8106 49.9849 21.4232C50.0327 21.0315 50.1524 20.6724 50.3439 20.346C50.5354 20.0152 50.7574 19.7236 51.0099 19.4712C51.1709 19.3101 51.3755 19.1447 51.6236 18.975C51.8717 18.8009 52.1524 18.6747 52.4658 18.5963C52.7813 18.5158 53.123 18.5289 53.4908 18.6355C53.8586 18.7421 54.2416 18.9946 54.6398 19.3928L57.9433 22.6963L57.1729 23.4667L56.494 22.7877L56.4548 22.8269C56.5114 22.9879 56.5408 23.1914 56.5429 23.4373C56.5451 23.6832 56.4885 23.9509 56.3732 24.2404C56.2578 24.5298 56.0544 24.8203 55.7627 25.1119ZM55.1882 24.3024C55.4929 23.9977 55.6898 23.6811 55.7791 23.3525C55.8705 23.0217 55.8748 22.7083 55.7921 22.4123C55.7116 22.1142 55.5669 21.8607 55.358 21.6517L54.6529 20.9466C54.6594 21.0185 54.6235 21.1262 54.5451 21.2698C54.4668 21.4091 54.3678 21.5625 54.2481 21.7301C54.1284 21.8933 54.0098 22.0511 53.8923 22.2034C53.7748 22.3514 53.6801 22.4722 53.6083 22.5658C53.4342 22.7921 53.2895 23.0217 53.1741 23.2545C53.0588 23.483 53.0055 23.7083 53.0142 23.9303C53.0229 24.1479 53.1252 24.3546 53.321 24.5505C53.5887 24.8182 53.8901 24.9215 54.2252 24.8606C54.5604 24.7953 54.8814 24.6092 55.1882 24.3024ZM53.4345 13.8345L60.1198 20.5198L59.3494 21.2902L52.6641 14.6048L53.4345 13.8345Z" fill="#1D1D1D"/>
</svg>
