<svg width="329" height="214" viewBox="0 0 329 214" fill="none" xmlns="http://www.w3.org/2000/svg">
<circle cx="107" cy="107" r="107" fill="black"/>
<circle cx="107" cy="107" r="106.5" stroke="white" stroke-opacity="0.3"/>
<rect x="70" y="13" width="259" height="82" fill="black"/>
<path d="M90.3244 76V65.3278H91.7874V73.228C92.1159 72.6839 92.5163 72.0627 92.9886 71.3646C93.4711 70.6665 93.9793 69.9581 94.5132 69.2394C95.0573 68.5105 95.6015 67.8072 96.1456 67.1296C96.7 66.4417 97.2185 65.8411 97.701 65.3278H98.8868V76H97.4238V67.6686C97.1363 67.9971 96.8232 68.377 96.4844 68.8082C96.1456 69.2394 95.7965 69.7014 95.4372 70.1942C95.0779 70.6767 94.7134 71.1798 94.3438 71.7034C93.9845 72.227 93.6354 72.7455 93.2966 73.2588C92.9578 73.7619 92.6395 74.2495 92.3418 74.7218C92.0543 75.1941 91.7977 75.6201 91.5718 76H90.3244ZM107.997 76H106.564V72.458H102.868V76H101.436V67.992H102.868V71.2568H106.564V67.992H107.997V76ZM117.02 76H115.588V72.458H111.892V76H110.46V67.992H111.892V71.2568H115.588V67.992H117.02V76ZM126.552 71.996C126.552 72.6325 126.459 73.2075 126.274 73.7208C126.09 74.2341 125.828 74.6756 125.489 75.0452C125.16 75.4148 124.765 75.7023 124.303 75.9076C123.841 76.1027 123.338 76.2002 122.794 76.2002C122.25 76.2002 121.747 76.1027 121.285 75.9076C120.823 75.7023 120.422 75.4148 120.084 75.0452C119.755 74.6756 119.498 74.2341 119.314 73.7208C119.129 73.2075 119.036 72.6325 119.036 71.996C119.036 71.3697 119.129 70.7999 119.314 70.2866C119.498 69.763 119.755 69.3164 120.084 68.9468C120.422 68.5772 120.823 68.2949 121.285 68.0998C121.747 67.8945 122.25 67.7918 122.794 67.7918C123.338 67.7918 123.841 67.8945 124.303 68.0998C124.765 68.2949 125.16 68.5772 125.489 68.9468C125.828 69.3164 126.09 69.763 126.274 70.2866C126.459 70.7999 126.552 71.3697 126.552 71.996ZM125.058 71.996C125.058 71.0925 124.852 70.379 124.442 69.8554C124.041 69.3215 123.492 69.0546 122.794 69.0546C122.096 69.0546 121.541 69.3215 121.131 69.8554C120.73 70.379 120.53 71.0925 120.53 71.996C120.53 72.8995 120.73 73.6181 121.131 74.152C121.541 74.6756 122.096 74.9374 122.794 74.9374C123.492 74.9374 124.041 74.6756 124.442 74.152C124.852 73.6181 125.058 72.8995 125.058 71.996ZM129.968 74.922C130.03 74.9323 130.117 74.9425 130.23 74.9528C130.343 74.9631 130.471 74.9733 130.615 74.9836C130.759 74.9836 130.907 74.9887 131.061 74.999C131.226 74.999 131.38 74.999 131.523 74.999C131.821 74.999 132.103 74.9785 132.37 74.9374C132.648 74.8963 132.884 74.8245 133.079 74.7218C133.284 74.6191 133.443 74.4857 133.556 74.3214C133.679 74.1469 133.741 73.9261 133.741 73.6592C133.741 73.4025 133.685 73.1921 133.572 73.0278C133.469 72.8533 133.325 72.7147 133.14 72.612C132.956 72.5093 132.735 72.4375 132.478 72.3964C132.232 72.3553 131.965 72.3348 131.677 72.3348H129.968V74.922ZM131.493 71.2722C131.77 71.2722 132.021 71.2568 132.247 71.226C132.483 71.1849 132.684 71.1182 132.848 71.0258C133.022 70.9334 133.156 70.8102 133.248 70.6562C133.351 70.5022 133.402 70.3071 133.402 70.071C133.402 69.8246 133.341 69.6295 133.217 69.4858C133.094 69.3421 132.93 69.2343 132.725 69.1624C132.53 69.0803 132.304 69.0289 132.047 69.0084C131.801 68.9776 131.549 68.9622 131.292 68.9622C131.056 68.9622 130.815 68.9673 130.569 68.9776C130.332 68.9879 130.132 68.9981 129.968 69.0084V71.2722H131.493ZM131.462 76.1386C130.856 76.1386 130.297 76.1078 129.783 76.0462C129.27 75.9949 128.864 75.9333 128.567 75.8614V68.069C128.864 67.9971 129.27 67.9355 129.783 67.8842C130.297 67.8226 130.856 67.7918 131.462 67.7918C131.883 67.7918 132.293 67.8277 132.694 67.8996C133.094 67.9715 133.448 68.0947 133.756 68.2692C134.064 68.4335 134.311 68.6645 134.496 68.9622C134.691 69.2497 134.788 69.609 134.788 70.0402C134.788 70.4303 134.691 70.764 134.496 71.0412C134.301 71.3184 134.039 71.534 133.71 71.688C134.152 71.842 134.501 72.073 134.757 72.381C135.024 72.6787 135.158 73.0997 135.158 73.6438C135.158 74.1263 135.06 74.5267 134.865 74.845C134.68 75.1633 134.419 75.4199 134.08 75.615C133.751 75.8101 133.361 75.9435 132.909 76.0154C132.458 76.0975 131.975 76.1386 131.462 76.1386ZM139.714 74.9682C140.053 74.9682 140.35 74.9631 140.607 74.9528C140.874 74.9323 141.095 74.9015 141.269 74.8604V72.4734C141.167 72.4221 140.997 72.381 140.761 72.3502C140.535 72.3091 140.258 72.2886 139.929 72.2886C139.714 72.2886 139.483 72.304 139.236 72.3348C139 72.3656 138.78 72.4323 138.574 72.535C138.379 72.6274 138.215 72.7609 138.081 72.9354C137.948 73.0997 137.881 73.3204 137.881 73.5976C137.881 74.1109 138.046 74.4703 138.374 74.6756C138.703 74.8707 139.149 74.9682 139.714 74.9682ZM139.591 67.7918C140.166 67.7918 140.648 67.8688 141.038 68.0228C141.439 68.1665 141.757 68.377 141.993 68.6542C142.239 68.9211 142.414 69.2445 142.517 69.6244C142.619 69.994 142.671 70.4047 142.671 70.8564V75.8614C142.547 75.8819 142.373 75.9127 142.147 75.9538C141.931 75.9846 141.685 76.0154 141.408 76.0462C141.131 76.077 140.828 76.1027 140.499 76.1232C140.181 76.154 139.863 76.1694 139.544 76.1694C139.093 76.1694 138.677 76.1232 138.297 76.0308C137.917 75.9384 137.589 75.7947 137.311 75.5996C137.034 75.3943 136.819 75.1273 136.665 74.7988C136.511 74.4703 136.434 74.075 136.434 73.613C136.434 73.1715 136.521 72.7917 136.695 72.4734C136.88 72.1551 137.127 71.8985 137.435 71.7034C137.743 71.5083 138.102 71.3646 138.513 71.2722C138.923 71.1798 139.355 71.1336 139.806 71.1336C139.95 71.1336 140.099 71.1439 140.253 71.1644C140.407 71.1747 140.551 71.1952 140.684 71.226C140.828 71.2465 140.951 71.2671 141.054 71.2876C141.156 71.3081 141.228 71.3235 141.269 71.3338V70.9334C141.269 70.6973 141.244 70.4663 141.192 70.2404C141.141 70.0043 141.049 69.7989 140.915 69.6244C140.782 69.4396 140.597 69.2959 140.361 69.1932C140.135 69.0803 139.837 69.0238 139.467 69.0238C138.995 69.0238 138.579 69.0597 138.22 69.1316C137.871 69.1932 137.609 69.2599 137.435 69.3318L137.265 68.146C137.45 68.0639 137.758 67.9869 138.189 67.915C138.62 67.8329 139.088 67.7918 139.591 67.7918ZM151.44 74.8142H152.518V78.233H151.163V76H145.049V67.992H146.482V74.8142H150.008V67.992H151.44V74.8142ZM160.803 67.992V76H159.417V69.9016C159.109 70.2917 158.77 70.7486 158.4 71.2722C158.031 71.7958 157.661 72.3399 157.291 72.9046C156.922 73.459 156.568 74.0083 156.229 74.5524C155.89 75.0965 155.597 75.5791 155.351 76H154.073V67.992H155.459V73.7516C155.726 73.3101 156.029 72.8276 156.367 72.304C156.706 71.7701 157.055 71.2465 157.415 70.7332C157.784 70.2096 158.149 69.7117 158.508 69.2394C158.878 68.7569 159.222 68.3411 159.54 67.992H160.803ZM169.991 67.992V76H168.605V69.9016C168.297 70.2917 167.959 70.7486 167.589 71.2722C167.219 71.7958 166.85 72.3399 166.48 72.9046C166.111 73.459 165.756 74.0083 165.418 74.5524C165.079 75.0965 164.786 75.5791 164.54 76H163.262V67.992H164.648V73.7516C164.915 73.3101 165.217 72.8276 165.556 72.304C165.895 71.7701 166.244 71.2465 166.603 70.7332C166.973 70.2096 167.338 69.7117 167.697 69.2394C168.066 68.7569 168.41 68.3411 168.729 67.992H169.991ZM177.539 70.1018C177.437 71.1182 177.36 72.1346 177.308 73.151C177.257 74.1571 177.216 75.1068 177.185 76H175.815C175.835 75.3737 175.866 74.7218 175.907 74.0442C175.948 73.3563 175.994 72.6685 176.046 71.9806C176.097 71.2825 176.153 70.5997 176.215 69.9324C176.277 69.2548 176.343 68.608 176.415 67.992H177.724C178.053 68.5259 178.438 69.2599 178.879 70.1942C179.321 71.1182 179.829 72.1859 180.404 73.3974C180.979 72.1859 181.487 71.1182 181.928 70.1942C182.37 69.2599 182.755 68.5259 183.083 67.992H184.408C184.48 68.608 184.546 69.2548 184.608 69.9324C184.67 70.5997 184.726 71.2825 184.777 71.9806C184.829 72.6685 184.875 73.3563 184.916 74.0442C184.957 74.7218 184.988 75.3737 185.008 76H183.592C183.561 75.1068 183.52 74.1571 183.468 73.151C183.417 72.1346 183.34 71.1182 183.237 70.1018C183.073 70.4201 182.883 70.8051 182.668 71.2568C182.452 71.6983 182.236 72.15 182.021 72.612C181.815 73.074 181.62 73.5155 181.436 73.9364C181.251 74.3573 181.107 74.691 181.004 74.9374H179.803C179.69 74.6807 179.536 74.3419 179.341 73.921C179.156 73.5001 178.956 73.0586 178.741 72.5966C178.535 72.1243 178.325 71.6675 178.109 71.226C177.894 70.7743 177.704 70.3995 177.539 70.1018ZM186.832 72.0114C186.832 71.303 186.935 70.687 187.14 70.1634C187.346 69.6295 187.618 69.1881 187.957 68.839C188.295 68.4899 188.686 68.2281 189.127 68.0536C189.569 67.8791 190.02 67.7918 190.482 67.7918C191.56 67.7918 192.387 68.1306 192.962 68.8082C193.537 69.4755 193.824 70.4971 193.824 71.8728C193.824 71.9344 193.824 72.0165 193.824 72.1192C193.824 72.2116 193.819 72.2989 193.809 72.381H188.326C188.388 73.2126 188.629 73.844 189.05 74.2752C189.471 74.7064 190.128 74.922 191.021 74.922C191.524 74.922 191.945 74.8809 192.284 74.7988C192.633 74.7064 192.895 74.6191 193.069 74.537L193.27 75.7382C193.095 75.8306 192.787 75.9281 192.346 76.0308C191.914 76.1335 191.422 76.1848 190.867 76.1848C190.169 76.1848 189.563 76.0821 189.05 75.8768C188.547 75.6612 188.131 75.3686 187.803 74.999C187.474 74.6294 187.228 74.1931 187.063 73.69C186.909 73.1767 186.832 72.6171 186.832 72.0114ZM192.33 71.226C192.341 70.5792 192.176 70.0505 191.837 69.6398C191.509 69.2189 191.052 69.0084 190.467 69.0084C190.138 69.0084 189.846 69.0751 189.589 69.2086C189.343 69.3318 189.132 69.4961 188.958 69.7014C188.783 69.9067 188.645 70.1429 188.542 70.4098C188.449 70.6767 188.388 70.9488 188.357 71.226H192.33ZM202.442 76H201.01V72.458H197.314V76H195.881V67.992H197.314V71.2568H201.01V67.992H202.442V76ZM208.216 72.8892C208.062 72.8892 207.913 72.8892 207.769 72.8892C207.626 72.8789 207.487 72.8687 207.353 72.8584C207.025 73.3512 206.707 73.8799 206.399 74.4446C206.101 74.999 205.834 75.5175 205.598 76H204.15C204.273 75.7023 204.417 75.3994 204.581 75.0914C204.746 74.7731 204.91 74.4651 205.074 74.1674C205.249 73.8697 205.423 73.5873 205.598 73.3204C205.772 73.0535 205.937 72.8122 206.091 72.5966C205.803 72.4939 205.567 72.3707 205.382 72.227C205.197 72.073 205.049 71.9036 204.936 71.7188C204.823 71.534 204.741 71.3389 204.689 71.1336C204.648 70.918 204.628 70.7024 204.628 70.4868C204.628 70.0351 204.71 69.6398 204.874 69.301C205.049 68.9622 205.285 68.685 205.582 68.4694C205.88 68.2435 206.229 68.0741 206.63 67.9612C207.04 67.8483 207.487 67.7918 207.969 67.7918C208.647 67.7918 209.222 67.8226 209.694 67.8842C210.167 67.9458 210.562 68.0177 210.88 68.0998V76H209.463V72.8892H208.216ZM209.463 69.0546C209.35 69.0341 209.16 69.0135 208.893 68.993C208.637 68.9725 208.339 68.9622 208 68.9622C207.415 68.9622 206.943 69.0854 206.583 69.3318C206.224 69.5679 206.044 69.9478 206.044 70.4714C206.044 70.9847 206.229 71.3389 206.599 71.534C206.968 71.7291 207.446 71.8266 208.031 71.8266H209.463V69.0546ZM214.774 71.303H216.53C216.591 70.7691 216.725 70.2866 216.93 69.8554C217.146 69.4242 217.412 69.0546 217.731 68.7466C218.049 68.4386 218.413 68.2025 218.824 68.0382C219.235 67.8739 219.676 67.7918 220.149 67.7918C220.672 67.7918 221.155 67.8945 221.596 68.0998C222.048 68.2949 222.438 68.5772 222.767 68.9468C223.095 69.3164 223.352 69.763 223.537 70.2866C223.721 70.7999 223.814 71.3697 223.814 71.996C223.814 72.6325 223.721 73.2075 223.537 73.7208C223.352 74.2341 223.095 74.6756 222.767 75.0452C222.438 75.4148 222.048 75.7023 221.596 75.9076C221.155 76.1027 220.672 76.2002 220.149 76.2002C219.656 76.2002 219.194 76.1129 218.763 75.9384C218.342 75.7536 217.972 75.5021 217.654 75.1838C217.335 74.8553 217.074 74.46 216.868 73.998C216.673 73.536 216.555 73.0227 216.514 72.458H214.774V76H213.342V67.992H214.774V71.303ZM222.335 71.996C222.335 71.0925 222.135 70.379 221.735 69.8554C221.345 69.3215 220.816 69.0546 220.149 69.0546C219.481 69.0546 218.947 69.3215 218.547 69.8554C218.157 70.379 217.962 71.0925 217.962 71.996C217.962 72.8995 218.157 73.6181 218.547 74.152C218.947 74.6756 219.481 74.9374 220.149 74.9374C220.816 74.9374 221.345 74.6756 221.735 74.152C222.135 73.6181 222.335 72.8995 222.335 71.996ZM225.824 76V67.992H227.256V74.8142H230.213V67.992H231.645V74.8142H234.602V67.992H236.034V74.8142H237.112V78.233H235.757V76H225.824ZM238.221 72.0114C238.221 71.303 238.324 70.687 238.529 70.1634C238.734 69.6295 239.006 69.1881 239.345 68.839C239.684 68.4899 240.074 68.2281 240.516 68.0536C240.957 67.8791 241.409 67.7918 241.871 67.7918C242.949 67.7918 243.775 68.1306 244.35 68.8082C244.925 69.4755 245.213 70.4971 245.213 71.8728C245.213 71.9344 245.213 72.0165 245.213 72.1192C245.213 72.2116 245.207 72.2989 245.197 72.381H239.715C239.776 73.2126 240.018 73.844 240.439 74.2752C240.859 74.7064 241.517 74.922 242.41 74.922C242.913 74.922 243.334 74.8809 243.673 74.7988C244.022 74.7064 244.283 74.6191 244.458 74.537L244.658 75.7382C244.484 75.8306 244.176 75.9281 243.734 76.0308C243.303 76.1335 242.81 76.1848 242.256 76.1848C241.558 76.1848 240.952 76.0821 240.439 75.8768C239.935 75.6612 239.52 75.3686 239.191 74.999C238.863 74.6294 238.616 74.1931 238.452 73.69C238.298 73.1767 238.221 72.6171 238.221 72.0114ZM243.719 71.226C243.729 70.5792 243.565 70.0505 243.226 69.6398C242.897 69.2189 242.441 69.0084 241.855 69.0084C241.527 69.0084 241.234 69.0751 240.978 69.2086C240.731 69.3318 240.521 69.4961 240.346 69.7014C240.172 69.9067 240.033 70.1429 239.93 70.4098C239.838 70.6767 239.776 70.9488 239.746 71.226H243.719ZM252.229 69.1932H248.702V76H247.27V67.992H252.229V69.1932ZM260.775 71.996C260.775 72.6325 260.683 73.2075 260.498 73.7208C260.313 74.2341 260.051 74.6756 259.713 75.0452C259.384 75.4148 258.989 75.7023 258.527 75.9076C258.065 76.1027 257.562 76.2002 257.018 76.2002C256.473 76.2002 255.97 76.1027 255.508 75.9076C255.046 75.7023 254.646 75.4148 254.307 75.0452C253.979 74.6756 253.722 74.2341 253.537 73.7208C253.352 73.2075 253.26 72.6325 253.26 71.996C253.26 71.3697 253.352 70.7999 253.537 70.2866C253.722 69.763 253.979 69.3164 254.307 68.9468C254.646 68.5772 255.046 68.2949 255.508 68.0998C255.97 67.8945 256.473 67.7918 257.018 67.7918C257.562 67.7918 258.065 67.8945 258.527 68.0998C258.989 68.2949 259.384 68.5772 259.713 68.9468C260.051 69.3164 260.313 69.763 260.498 70.2866C260.683 70.7999 260.775 71.3697 260.775 71.996ZM259.281 71.996C259.281 71.0925 259.076 70.379 258.665 69.8554C258.265 69.3215 257.716 69.0546 257.018 69.0546C256.319 69.0546 255.765 69.3215 255.354 69.8554C254.954 70.379 254.754 71.0925 254.754 71.996C254.754 72.8995 254.954 73.6181 255.354 74.152C255.765 74.6756 256.319 74.9374 257.018 74.9374C257.716 74.9374 258.265 74.6756 258.665 74.152C259.076 73.6181 259.281 72.8995 259.281 71.996ZM266.271 76.1848C265.624 76.1848 265.054 76.0821 264.561 75.8768C264.079 75.6715 263.668 75.384 263.329 75.0144C263.001 74.6448 262.754 74.2085 262.59 73.7054C262.426 73.1921 262.344 72.6274 262.344 72.0114C262.344 71.3954 262.431 70.8307 262.605 70.3174C262.79 69.8041 263.047 69.3626 263.375 68.993C263.704 68.6131 264.104 68.3205 264.577 68.1152C265.059 67.8996 265.593 67.7918 266.178 67.7918C266.538 67.7918 266.897 67.8226 267.256 67.8842C267.616 67.9458 267.959 68.0433 268.288 68.1768L267.965 69.3934C267.749 69.2907 267.497 69.2086 267.21 69.147C266.933 69.0854 266.635 69.0546 266.317 69.0546C265.516 69.0546 264.9 69.3061 264.469 69.8092C264.048 70.3123 263.837 71.0463 263.837 72.0114C263.837 72.4426 263.884 72.8379 263.976 73.1972C264.079 73.5565 264.233 73.8645 264.438 74.1212C264.654 74.3779 264.926 74.5781 265.254 74.7218C265.583 74.8553 265.983 74.922 266.455 74.922C266.835 74.922 267.179 74.8861 267.487 74.8142C267.795 74.7423 268.036 74.6653 268.211 74.5832L268.411 75.7844C268.329 75.8357 268.211 75.8871 268.057 75.9384C267.903 75.9795 267.728 76.0154 267.533 76.0462C267.338 76.0873 267.128 76.1181 266.902 76.1386C266.686 76.1694 266.476 76.1848 266.271 76.1848ZM273.26 72.8892C273.106 72.8892 272.957 72.8892 272.813 72.8892C272.669 72.8789 272.531 72.8687 272.397 72.8584C272.069 73.3512 271.751 73.8799 271.443 74.4446C271.145 74.999 270.878 75.5175 270.642 76H269.194C269.317 75.7023 269.461 75.3994 269.625 75.0914C269.79 74.7731 269.954 74.4651 270.118 74.1674C270.293 73.8697 270.467 73.5873 270.642 73.3204C270.816 73.0535 270.981 72.8122 271.135 72.5966C270.847 72.4939 270.611 72.3707 270.426 72.227C270.241 72.073 270.093 71.9036 269.98 71.7188C269.867 71.534 269.785 71.3389 269.733 71.1336C269.692 70.918 269.672 70.7024 269.672 70.4868C269.672 70.0351 269.754 69.6398 269.918 69.301C270.093 68.9622 270.329 68.685 270.626 68.4694C270.924 68.2435 271.273 68.0741 271.674 67.9612C272.084 67.8483 272.531 67.7918 273.013 67.7918C273.691 67.7918 274.266 67.8226 274.738 67.8842C275.21 67.9458 275.606 68.0177 275.924 68.0998V76H274.507V72.8892H273.26ZM274.507 69.0546C274.394 69.0341 274.204 69.0135 273.937 68.993C273.681 68.9725 273.383 68.9622 273.044 68.9622C272.459 68.9622 271.987 69.0854 271.627 69.3318C271.268 69.5679 271.088 69.9478 271.088 70.4714C271.088 70.9847 271.273 71.3389 271.643 71.534C272.012 71.7291 272.49 71.8266 273.075 71.8266H274.507V69.0546ZM283.475 70.1018C283.372 71.1182 283.295 72.1346 283.244 73.151C283.192 74.1571 283.151 75.1068 283.12 76H281.75C281.77 75.3737 281.801 74.7218 281.842 74.0442C281.883 73.3563 281.929 72.6685 281.981 71.9806C282.032 71.2825 282.089 70.5997 282.15 69.9324C282.212 69.2548 282.278 68.608 282.35 67.992H283.659C283.988 68.5259 284.373 69.2599 284.814 70.1942C285.256 71.1182 285.764 72.1859 286.339 73.3974C286.914 72.1859 287.422 71.1182 287.864 70.1942C288.305 69.2599 288.69 68.5259 289.019 67.992H290.343C290.415 68.608 290.482 69.2548 290.543 69.9324C290.605 70.5997 290.661 71.2825 290.713 71.9806C290.764 72.6685 290.81 73.3563 290.851 74.0442C290.892 74.7218 290.923 75.3737 290.944 76H289.527C289.496 75.1068 289.455 74.1571 289.404 73.151C289.352 72.1346 289.275 71.1182 289.173 70.1018C289.008 70.4201 288.818 70.8051 288.603 71.2568C288.387 71.6983 288.172 72.15 287.956 72.612C287.751 73.074 287.556 73.5155 287.371 73.9364C287.186 74.3573 287.042 74.691 286.94 74.9374H285.738C285.625 74.6807 285.471 74.3419 285.276 73.921C285.092 73.5001 284.891 73.0586 284.676 72.5966C284.47 72.1243 284.26 71.6675 284.044 71.226C283.829 70.7743 283.639 70.3995 283.475 70.1018ZM299.944 67.992V76H298.558V69.9016C298.25 70.2917 297.911 70.7486 297.542 71.2722C297.172 71.7958 296.802 72.3399 296.433 72.9046C296.063 73.459 295.709 74.0083 295.37 74.5524C295.031 75.0965 294.739 75.5791 294.492 76H293.214V67.992H294.6V73.7516C294.867 73.3101 295.17 72.8276 295.509 72.304C295.848 71.7701 296.197 71.2465 296.556 70.7332C296.926 70.2096 297.29 69.7117 297.649 69.2394C298.019 68.7569 298.363 68.3411 298.681 67.992H299.944ZM307.962 72.0114C307.962 71.0771 307.731 70.3585 307.269 69.8554C306.807 69.3523 306.191 69.1008 305.421 69.1008C304.99 69.1008 304.651 69.1162 304.405 69.147C304.169 69.1778 303.979 69.2137 303.835 69.2548V74.306C304.01 74.4497 304.261 74.5883 304.59 74.7218C304.918 74.8553 305.278 74.922 305.668 74.922C306.079 74.922 306.428 74.8501 306.715 74.7064C307.013 74.5524 307.254 74.3471 307.439 74.0904C307.624 73.8235 307.757 73.5155 307.839 73.1664C307.921 72.8071 307.962 72.4221 307.962 72.0114ZM309.456 72.0114C309.456 72.6171 309.374 73.1767 309.21 73.69C309.056 74.2033 308.825 74.6448 308.517 75.0144C308.209 75.384 307.829 75.6715 307.377 75.8768C306.936 76.0821 306.428 76.1848 305.853 76.1848C305.391 76.1848 304.98 76.1232 304.621 76C304.272 75.8768 304.01 75.7587 303.835 75.6458V78.849H302.403V68.2384C302.742 68.1563 303.163 68.069 303.666 67.9766C304.179 67.8739 304.77 67.8226 305.437 67.8226C306.053 67.8226 306.607 67.9201 307.1 68.1152C307.593 68.3103 308.014 68.5875 308.363 68.9468C308.712 69.3061 308.979 69.7476 309.164 70.2712C309.359 70.7845 309.456 71.3646 309.456 72.0114ZM314.182 74.9682C314.521 74.9682 314.819 74.9631 315.075 74.9528C315.342 74.9323 315.563 74.9015 315.737 74.8604V72.4734C315.635 72.4221 315.465 72.381 315.229 72.3502C315.003 72.3091 314.726 72.2886 314.398 72.2886C314.182 72.2886 313.951 72.304 313.705 72.3348C313.469 72.3656 313.248 72.4323 313.042 72.535C312.847 72.6274 312.683 72.7609 312.55 72.9354C312.416 73.0997 312.349 73.3204 312.349 73.5976C312.349 74.1109 312.514 74.4703 312.842 74.6756C313.171 74.8707 313.617 74.9682 314.182 74.9682ZM314.059 67.7918C314.634 67.7918 315.116 67.8688 315.506 68.0228C315.907 68.1665 316.225 68.377 316.461 68.6542C316.708 68.9211 316.882 69.2445 316.985 69.6244C317.088 69.994 317.139 70.4047 317.139 70.8564V75.8614C317.016 75.8819 316.841 75.9127 316.615 75.9538C316.4 75.9846 316.153 76.0154 315.876 76.0462C315.599 76.077 315.296 76.1027 314.967 76.1232C314.649 76.154 314.331 76.1694 314.013 76.1694C313.561 76.1694 313.145 76.1232 312.765 76.0308C312.385 75.9384 312.057 75.7947 311.78 75.5996C311.502 75.3943 311.287 75.1273 311.133 74.7988C310.979 74.4703 310.902 74.075 310.902 73.613C310.902 73.1715 310.989 72.7917 311.164 72.4734C311.348 72.1551 311.595 71.8985 311.903 71.7034C312.211 71.5083 312.57 71.3646 312.981 71.2722C313.392 71.1798 313.823 71.1336 314.274 71.1336C314.418 71.1336 314.567 71.1439 314.721 71.1644C314.875 71.1747 315.019 71.1952 315.152 71.226C315.296 71.2465 315.419 71.2671 315.522 71.2876C315.625 71.3081 315.696 71.3235 315.737 71.3338V70.9334C315.737 70.6973 315.712 70.4663 315.66 70.2404C315.609 70.0043 315.517 69.7989 315.383 69.6244C315.25 69.4396 315.065 69.2959 314.829 69.1932C314.603 69.0803 314.305 69.0238 313.936 69.0238C313.463 69.0238 313.048 69.0597 312.688 69.1316C312.339 69.1932 312.077 69.2599 311.903 69.3318L311.733 68.146C311.918 68.0639 312.226 67.9869 312.657 67.915C313.089 67.8329 313.556 67.7918 314.059 67.7918Z" fill="white"/>
<g filter="url(#filter0_b_644_4)">
<path d="M117.909 24.0909V59H113.818L94.7955 31.5909H94.4545V59H90.2273V24.0909H94.3182L113.409 51.5682H113.75V24.0909H117.909ZM136.8 59.5455C134.277 59.5455 132.101 58.9886 130.271 57.875C128.453 56.75 127.05 55.1818 126.061 53.1705C125.084 51.1477 124.595 48.7955 124.595 46.1136C124.595 43.4318 125.084 41.0682 126.061 39.0227C127.05 36.9659 128.425 35.3636 130.186 34.2159C131.959 33.0568 134.027 32.4773 136.391 32.4773C137.754 32.4773 139.101 32.7045 140.43 33.1591C141.76 33.6136 142.97 34.3523 144.061 35.375C145.152 36.3864 146.021 37.7273 146.669 39.3977C147.317 41.0682 147.641 43.125 147.641 45.5682V47.2727H127.459V43.7955H143.55C143.55 42.3182 143.254 41 142.663 39.8409C142.084 38.6818 141.254 37.767 140.175 37.0966C139.107 36.4261 137.845 36.0909 136.391 36.0909C134.788 36.0909 133.402 36.4886 132.232 37.2841C131.072 38.0682 130.18 39.0909 129.555 40.3523C128.93 41.6136 128.618 42.9659 128.618 44.4091V46.7273C128.618 48.7045 128.959 50.3807 129.641 51.7557C130.334 53.1193 131.294 54.1591 132.521 54.875C133.749 55.5795 135.175 55.9318 136.8 55.9318C137.857 55.9318 138.811 55.7841 139.663 55.4886C140.527 55.1818 141.271 54.7273 141.896 54.125C142.521 53.5114 143.004 52.75 143.345 51.8409L147.232 52.9318C146.822 54.25 146.135 55.4091 145.169 56.4091C144.203 57.3977 143.01 58.1705 141.589 58.7273C140.169 59.2727 138.572 59.5455 136.8 59.5455ZM170.26 48.2955V32.8182H174.283V59H170.26V54.5682H169.987C169.374 55.8977 168.419 57.0284 167.124 57.9602C165.828 58.8807 164.192 59.3409 162.214 59.3409C160.578 59.3409 159.124 58.983 157.851 58.267C156.578 57.5398 155.578 56.4489 154.851 54.9943C154.124 53.5284 153.76 51.6818 153.76 49.4545V32.8182H157.783V49.1818C157.783 51.0909 158.317 52.6136 159.385 53.75C160.464 54.8864 161.839 55.4545 163.51 55.4545C164.51 55.4545 165.527 55.1989 166.561 54.6875C167.607 54.1761 168.482 53.392 169.186 52.3352C169.902 51.2784 170.26 49.9318 170.26 48.2955ZM181.651 59V32.8182H185.537V36.7727H185.81C186.287 35.4773 187.151 34.4261 188.401 33.6193C189.651 32.8125 191.06 32.4091 192.628 32.4091C192.923 32.4091 193.293 32.4148 193.736 32.4261C194.179 32.4375 194.514 32.4545 194.741 32.4773V36.5682C194.605 36.5341 194.293 36.483 193.804 36.4148C193.327 36.3352 192.821 36.2955 192.287 36.2955C191.014 36.2955 189.878 36.5625 188.878 37.0966C187.889 37.6193 187.105 38.3466 186.526 39.2784C185.957 40.1989 185.673 41.25 185.673 42.4318V59H181.651ZM207.214 59.6136C205.555 59.6136 204.05 59.3011 202.697 58.6761C201.345 58.0398 200.271 57.125 199.476 55.9318C198.68 54.7273 198.283 53.2727 198.283 51.5682C198.283 50.0682 198.578 48.8523 199.169 47.9205C199.76 46.9773 200.55 46.2386 201.538 45.7045C202.527 45.1705 203.618 44.7727 204.811 44.5114C206.016 44.2386 207.226 44.0227 208.442 43.8636C210.033 43.6591 211.322 43.5057 212.311 43.4034C213.311 43.2898 214.038 43.1023 214.493 42.8409C214.959 42.5795 215.192 42.125 215.192 41.4773V41.3409C215.192 39.6591 214.732 38.3523 213.811 37.4205C212.902 36.4886 211.521 36.0227 209.669 36.0227C207.749 36.0227 206.243 36.4432 205.152 37.2841C204.061 38.125 203.294 39.0227 202.851 39.9773L199.033 38.6136C199.714 37.0227 200.624 35.7841 201.76 34.8977C202.908 34 204.158 33.375 205.51 33.0227C206.874 32.6591 208.214 32.4773 209.533 32.4773C210.374 32.4773 211.339 32.5795 212.43 32.7841C213.533 32.9773 214.595 33.3807 215.618 33.9943C216.652 34.608 217.51 35.5341 218.192 36.7727C218.874 38.0114 219.214 39.6705 219.214 41.75V59H215.192V55.4545H214.987C214.714 56.0227 214.26 56.6307 213.624 57.2784C212.987 57.9261 212.141 58.4773 211.084 58.9318C210.027 59.3864 208.737 59.6136 207.214 59.6136ZM207.828 56C209.419 56 210.76 55.6875 211.851 55.0625C212.953 54.4375 213.783 53.6307 214.339 52.642C214.908 51.6534 215.192 50.6136 215.192 49.5227V45.8409C215.021 46.0455 214.646 46.233 214.067 46.4034C213.499 46.5625 212.839 46.7045 212.089 46.8295C211.351 46.9432 210.629 47.0455 209.925 47.1364C209.232 47.2159 208.669 47.2841 208.237 47.3409C207.192 47.4773 206.214 47.6989 205.305 48.0057C204.408 48.3011 203.68 48.75 203.124 49.3523C202.578 49.9432 202.305 50.75 202.305 51.7727C202.305 53.1705 202.822 54.2273 203.857 54.9432C204.902 55.6477 206.226 56 207.828 56ZM236.443 59.5455C234.261 59.5455 232.335 58.9943 230.665 57.892C228.994 56.7784 227.688 55.2102 226.744 53.1875C225.801 51.1534 225.33 48.75 225.33 45.9773C225.33 43.2273 225.801 40.8409 226.744 38.8182C227.688 36.7955 229 35.233 230.682 34.1307C232.364 33.0284 234.307 32.4773 236.511 32.4773C238.216 32.4773 239.563 32.7614 240.551 33.3295C241.551 33.8864 242.313 34.5227 242.835 35.2386C243.369 35.9432 243.784 36.5227 244.08 36.9773H244.42V24.0909H248.443V59H244.557V54.9773H244.08C243.784 55.4545 243.364 56.0568 242.818 56.7841C242.273 57.5 241.494 58.142 240.483 58.7102C239.472 59.267 238.125 59.5455 236.443 59.5455ZM236.989 55.9318C238.602 55.9318 239.966 55.5114 241.08 54.6705C242.193 53.8182 243.04 52.642 243.619 51.142C244.199 49.6307 244.489 47.8864 244.489 45.9091C244.489 43.9545 244.205 42.2443 243.636 40.7784C243.068 39.3011 242.227 38.1534 241.114 37.3352C240 36.5057 238.625 36.0909 236.989 36.0909C235.284 36.0909 233.864 36.5284 232.727 37.4034C231.602 38.267 230.756 39.4432 230.188 40.9318C229.631 42.4091 229.352 44.0682 229.352 45.9091C229.352 47.7727 229.636 49.4659 230.205 50.9886C230.784 52.5 231.636 53.7045 232.761 54.6023C233.898 55.4886 235.307 55.9318 236.989 55.9318ZM267.347 59.5455C264.824 59.5455 262.648 58.9886 260.818 57.875C259 56.75 257.597 55.1818 256.608 53.1705C255.631 51.1477 255.142 48.7955 255.142 46.1136C255.142 43.4318 255.631 41.0682 256.608 39.0227C257.597 36.9659 258.972 35.3636 260.733 34.2159C262.506 33.0568 264.574 32.4773 266.938 32.4773C268.301 32.4773 269.648 32.7045 270.977 33.1591C272.307 33.6136 273.517 34.3523 274.608 35.375C275.699 36.3864 276.568 37.7273 277.216 39.3977C277.864 41.0682 278.188 43.125 278.188 45.5682V47.2727H258.006V43.7955H274.097C274.097 42.3182 273.801 41 273.21 39.8409C272.631 38.6818 271.801 37.767 270.722 37.0966C269.653 36.4261 268.392 36.0909 266.938 36.0909C265.335 36.0909 263.949 36.4886 262.778 37.2841C261.619 38.0682 260.727 39.0909 260.102 40.3523C259.477 41.6136 259.165 42.9659 259.165 44.4091V46.7273C259.165 48.7045 259.506 50.3807 260.188 51.7557C260.881 53.1193 261.841 54.1591 263.068 54.875C264.295 55.5795 265.722 55.9318 267.347 55.9318C268.403 55.9318 269.358 55.7841 270.21 55.4886C271.074 55.1818 271.818 54.7273 272.443 54.125C273.068 53.5114 273.551 52.75 273.892 51.8409L277.778 52.9318C277.369 54.25 276.682 55.4091 275.716 56.4091C274.75 57.3977 273.557 58.1705 272.136 58.7273C270.716 59.2727 269.119 59.5455 267.347 59.5455ZM292.011 59.6136C290.352 59.6136 288.847 59.3011 287.494 58.6761C286.142 58.0398 285.068 57.125 284.273 55.9318C283.477 54.7273 283.08 53.2727 283.08 51.5682C283.08 50.0682 283.375 48.8523 283.966 47.9205C284.557 46.9773 285.347 46.2386 286.335 45.7045C287.324 45.1705 288.415 44.7727 289.608 44.5114C290.813 44.2386 292.023 44.0227 293.239 43.8636C294.83 43.6591 296.119 43.5057 297.108 43.4034C298.108 43.2898 298.835 43.1023 299.29 42.8409C299.756 42.5795 299.989 42.125 299.989 41.4773V41.3409C299.989 39.6591 299.528 38.3523 298.608 37.4205C297.699 36.4886 296.318 36.0227 294.466 36.0227C292.545 36.0227 291.04 36.4432 289.949 37.2841C288.858 38.125 288.091 39.0227 287.648 39.9773L283.83 38.6136C284.511 37.0227 285.42 35.7841 286.557 34.8977C287.705 34 288.955 33.375 290.307 33.0227C291.67 32.6591 293.011 32.4773 294.33 32.4773C295.17 32.4773 296.136 32.5795 297.227 32.7841C298.33 32.9773 299.392 33.3807 300.415 33.9943C301.449 34.608 302.307 35.5341 302.989 36.7727C303.67 38.0114 304.011 39.6705 304.011 41.75V59H299.989V55.4545H299.784C299.511 56.0227 299.057 56.6307 298.42 57.2784C297.784 57.9261 296.938 58.4773 295.881 58.9318C294.824 59.3864 293.534 59.6136 292.011 59.6136ZM292.625 56C294.216 56 295.557 55.6875 296.648 55.0625C297.75 54.4375 298.58 53.6307 299.136 52.642C299.705 51.6534 299.989 50.6136 299.989 49.5227V45.8409C299.818 46.0455 299.443 46.233 298.864 46.4034C298.295 46.5625 297.636 46.7045 296.886 46.8295C296.148 46.9432 295.426 47.0455 294.722 47.1364C294.028 47.2159 293.466 47.2841 293.034 47.3409C291.989 47.4773 291.011 47.6989 290.102 48.0057C289.205 48.3011 288.477 48.75 287.92 49.3523C287.375 49.9432 287.102 50.75 287.102 51.7727C287.102 53.1705 287.619 54.2273 288.653 54.9432C289.699 55.6477 291.023 56 292.625 56ZM315.376 24.0909V59H311.354V24.0909H315.376Z" fill="white"/>
</g>
<defs>
<filter id="filter0_b_644_4" x="84.2273" y="18.0909" width="237.149" height="47.5227" filterUnits="userSpaceOnUse" color-interpolation-filters="sRGB">
<feFlood flood-opacity="0" result="BackgroundImageFix"/>
<feGaussianBlur in="BackgroundImageFix" stdDeviation="3"/>
<feComposite in2="SourceAlpha" operator="in" result="effect1_backgroundBlur_644_4"/>
<feBlend mode="normal" in="SourceGraphic" in2="effect1_backgroundBlur_644_4" result="shape"/>
</filter>
</defs>
</svg>
