<svg width="329" height="214" viewBox="0 0 329 214" fill="none" xmlns="http://www.w3.org/2000/svg">
    <circle cx="107" cy="107" r="107" fill="black"/>
    <circle cx="107" cy="107" r="106.5" stroke="white" stroke-opacity="0.3"/>
    <rect x="70" y="13" width="259" height="66" fill="black"/>
    <g filter="url(#filter0_b_644_4)">
    <path d="M117.909 24.0909V59H113.818L94.7955 31.5909H94.4545V59H90.2273V24.0909H94.3182L113.409 51.5682H113.75V24.0909H117.909ZM136.8 59.5455C134.277 59.5455 132.101 58.9886 130.271 57.875C128.453 56.75 127.05 55.1818 126.061 53.1705C125.084 51.1477 124.595 48.7955 124.595 46.1136C124.595 43.4318 125.084 41.0682 126.061 39.0227C127.05 36.9659 128.425 35.3636 130.186 34.2159C131.959 33.0568 134.027 32.4773 136.391 32.4773C137.754 32.4773 139.101 32.7045 140.43 33.1591C141.76 33.6136 142.97 34.3523 144.061 35.375C145.152 36.3864 146.021 37.7273 146.669 39.3977C147.317 41.0682 147.641 43.125 147.641 45.5682V47.2727H127.459V43.7955H143.55C143.55 42.3182 143.254 41 142.663 39.8409C142.084 38.6818 141.254 37.767 140.175 37.0966C139.107 36.4261 137.845 36.0909 136.391 36.0909C134.788 36.0909 133.402 36.4886 132.232 37.2841C131.072 38.0682 130.18 39.0909 129.555 40.3523C128.93 41.6136 128.618 42.9659 128.618 44.4091V46.7273C128.618 48.7045 128.959 50.3807 129.641 51.7557C130.334 53.1193 131.294 54.1591 132.521 54.875C133.749 55.5795 135.175 55.9318 136.8 55.9318C137.857 55.9318 138.811 55.7841 139.663 55.4886C140.527 55.1818 141.271 54.7273 141.896 54.125C142.521 53.5114 143.004 52.75 143.345 51.8409L147.232 52.9318C146.822 54.25 146.135 55.4091 145.169 56.4091C144.203 57.3977 143.01 58.1705 141.589 58.7273C140.169 59.2727 138.572 59.5455 136.8 59.5455ZM170.26 48.2955V32.8182H174.283V59H170.26V54.5682H169.987C169.374 55.8977 168.419 57.0284 167.124 57.9602C165.828 58.8807 164.192 59.3409 162.214 59.3409C160.578 59.3409 159.124 58.983 157.851 58.267C156.578 57.5398 155.578 56.4489 154.851 54.9943C154.124 53.5284 153.76 51.6818 153.76 49.4545V32.8182H157.783V49.1818C157.783 51.0909 158.317 52.6136 159.385 53.75C160.464 54.8864 161.839 55.4545 163.51 55.4545C164.51 55.4545 165.527 55.1989 166.561 54.6875C167.607 54.1761 168.482 53.392 169.186 52.3352C169.902 51.2784 170.26 49.9318 170.26 48.2955ZM181.651 59V32.8182H185.537V36.7727H185.81C186.287 35.4773 187.151 34.4261 188.401 33.6193C189.651 32.8125 191.06 32.4091 192.628 32.4091C192.923 32.4091 193.293 32.4148 193.736 32.4261C194.179 32.4375 194.514 32.4545 194.741 32.4773V36.5682C194.605 36.5341 194.293 36.483 193.804 36.4148C193.327 36.3352 192.821 36.2955 192.287 36.2955C191.014 36.2955 189.878 36.5625 188.878 37.0966C187.889 37.6193 187.105 38.3466 186.526 39.2784C185.957 40.1989 185.673 41.25 185.673 42.4318V59H181.651ZM207.214 59.6136C205.555 59.6136 204.05 59.3011 202.697 58.6761C201.345 58.0398 200.271 57.125 199.476 55.9318C198.68 54.7273 198.283 53.2727 198.283 51.5682C198.283 50.0682 198.578 48.8523 199.169 47.9205C199.76 46.9773 200.55 46.2386 201.538 45.7045C202.527 45.1705 203.618 44.7727 204.811 44.5114C206.016 44.2386 207.226 44.0227 208.442 43.8636C210.033 43.6591 211.322 43.5057 212.311 43.4034C213.311 43.2898 214.038 43.1023 214.493 42.8409C214.959 42.5795 215.192 42.125 215.192 41.4773V41.3409C215.192 39.6591 214.732 38.3523 213.811 37.4205C212.902 36.4886 211.521 36.0227 209.669 36.0227C207.749 36.0227 206.243 36.4432 205.152 37.2841C204.061 38.125 203.294 39.0227 202.851 39.9773L199.033 38.6136C199.714 37.0227 200.624 35.7841 201.76 34.8977C202.908 34 204.158 33.375 205.51 33.0227C206.874 32.6591 208.214 32.4773 209.533 32.4773C210.374 32.4773 211.339 32.5795 212.43 32.7841C213.533 32.9773 214.595 33.3807 215.618 33.9943C216.652 34.608 217.51 35.5341 218.192 36.7727C218.874 38.0114 219.214 39.6705 219.214 41.75V59H215.192V55.4545H214.987C214.714 56.0227 214.26 56.6307 213.624 57.2784C212.987 57.9261 212.141 58.4773 211.084 58.9318C210.027 59.3864 208.737 59.6136 207.214 59.6136ZM207.828 56C209.419 56 210.76 55.6875 211.851 55.0625C212.953 54.4375 213.783 53.6307 214.339 52.642C214.908 51.6534 215.192 50.6136 215.192 49.5227V45.8409C215.021 46.0455 214.646 46.233 214.067 46.4034C213.499 46.5625 212.839 46.7045 212.089 46.8295C211.351 46.9432 210.629 47.0455 209.925 47.1364C209.232 47.2159 208.669 47.2841 208.237 47.3409C207.192 47.4773 206.214 47.6989 205.305 48.0057C204.408 48.3011 203.68 48.75 203.124 49.3523C202.578 49.9432 202.305 50.75 202.305 51.7727C202.305 53.1705 202.822 54.2273 203.857 54.9432C204.902 55.6477 206.226 56 207.828 56ZM236.443 59.5455C234.261 59.5455 232.335 58.9943 230.665 57.892C228.994 56.7784 227.688 55.2102 226.744 53.1875C225.801 51.1534 225.33 48.75 225.33 45.9773C225.33 43.2273 225.801 40.8409 226.744 38.8182C227.688 36.7955 229 35.233 230.682 34.1307C232.364 33.0284 234.307 32.4773 236.511 32.4773C238.216 32.4773 239.563 32.7614 240.551 33.3295C241.551 33.8864 242.313 34.5227 242.835 35.2386C243.369 35.9432 243.784 36.5227 244.08 36.9773H244.42V24.0909H248.443V59H244.557V54.9773H244.08C243.784 55.4545 243.364 56.0568 242.818 56.7841C242.273 57.5 241.494 58.142 240.483 58.7102C239.472 59.267 238.125 59.5455 236.443 59.5455ZM236.989 55.9318C238.602 55.9318 239.966 55.5114 241.08 54.6705C242.193 53.8182 243.04 52.642 243.619 51.142C244.199 49.6307 244.489 47.8864 244.489 45.9091C244.489 43.9545 244.205 42.2443 243.636 40.7784C243.068 39.3011 242.227 38.1534 241.114 37.3352C240 36.5057 238.625 36.0909 236.989 36.0909C235.284 36.0909 233.864 36.5284 232.727 37.4034C231.602 38.267 230.756 39.4432 230.188 40.9318C229.631 42.4091 229.352 44.0682 229.352 45.9091C229.352 47.7727 229.636 49.4659 230.205 50.9886C230.784 52.5 231.636 53.7045 232.761 54.6023C233.898 55.4886 235.307 55.9318 236.989 55.9318ZM267.347 59.5455C264.824 59.5455 262.648 58.9886 260.818 57.875C259 56.75 257.597 55.1818 256.608 53.1705C255.631 51.1477 255.142 48.7955 255.142 46.1136C255.142 43.4318 255.631 41.0682 256.608 39.0227C257.597 36.9659 258.972 35.3636 260.733 34.2159C262.506 33.0568 264.574 32.4773 266.938 32.4773C268.301 32.4773 269.648 32.7045 270.977 33.1591C272.307 33.6136 273.517 34.3523 274.608 35.375C275.699 36.3864 276.568 37.7273 277.216 39.3977C277.864 41.0682 278.188 43.125 278.188 45.5682V47.2727H258.006V43.7955H274.097C274.097 42.3182 273.801 41 273.21 39.8409C272.631 38.6818 271.801 37.767 270.722 37.0966C269.653 36.4261 268.392 36.0909 266.938 36.0909C265.335 36.0909 263.949 36.4886 262.778 37.2841C261.619 38.0682 260.727 39.0909 260.102 40.3523C259.477 41.6136 259.165 42.9659 259.165 44.4091V46.7273C259.165 48.7045 259.506 50.3807 260.188 51.7557C260.881 53.1193 261.841 54.1591 263.068 54.875C264.295 55.5795 265.722 55.9318 267.347 55.9318C268.403 55.9318 269.358 55.7841 270.21 55.4886C271.074 55.1818 271.818 54.7273 272.443 54.125C273.068 53.5114 273.551 52.75 273.892 51.8409L277.778 52.9318C277.369 54.25 276.682 55.4091 275.716 56.4091C274.75 57.3977 273.557 58.1705 272.136 58.7273C270.716 59.2727 269.119 59.5455 267.347 59.5455ZM292.011 59.6136C290.352 59.6136 288.847 59.3011 287.494 58.6761C286.142 58.0398 285.068 57.125 284.273 55.9318C283.477 54.7273 283.08 53.2727 283.08 51.5682C283.08 50.0682 283.375 48.8523 283.966 47.9205C284.557 46.9773 285.347 46.2386 286.335 45.7045C287.324 45.1705 288.415 44.7727 289.608 44.5114C290.813 44.2386 292.023 44.0227 293.239 43.8636C294.83 43.6591 296.119 43.5057 297.108 43.4034C298.108 43.2898 298.835 43.1023 299.29 42.8409C299.756 42.5795 299.989 42.125 299.989 41.4773V41.3409C299.989 39.6591 299.528 38.3523 298.608 37.4205C297.699 36.4886 296.318 36.0227 294.466 36.0227C292.545 36.0227 291.04 36.4432 289.949 37.2841C288.858 38.125 288.091 39.0227 287.648 39.9773L283.83 38.6136C284.511 37.0227 285.42 35.7841 286.557 34.8977C287.705 34 288.955 33.375 290.307 33.0227C291.67 32.6591 293.011 32.4773 294.33 32.4773C295.17 32.4773 296.136 32.5795 297.227 32.7841C298.33 32.9773 299.392 33.3807 300.415 33.9943C301.449 34.608 302.307 35.5341 302.989 36.7727C303.67 38.0114 304.011 39.6705 304.011 41.75V59H299.989V55.4545H299.784C299.511 56.0227 299.057 56.6307 298.42 57.2784C297.784 57.9261 296.938 58.4773 295.881 58.9318C294.824 59.3864 293.534 59.6136 292.011 59.6136ZM292.625 56C294.216 56 295.557 55.6875 296.648 55.0625C297.75 54.4375 298.58 53.6307 299.136 52.642C299.705 51.6534 299.989 50.6136 299.989 49.5227V45.8409C299.818 46.0455 299.443 46.233 298.864 46.4034C298.295 46.5625 297.636 46.7045 296.886 46.8295C296.148 46.9432 295.426 47.0455 294.722 47.1364C294.028 47.2159 293.466 47.2841 293.034 47.3409C291.989 47.4773 291.011 47.6989 290.102 48.0057C289.205 48.3011 288.477 48.75 287.92 49.3523C287.375 49.9432 287.102 50.75 287.102 51.7727C287.102 53.1705 287.619 54.2273 288.653 54.9432C289.699 55.6477 291.023 56 292.625 56ZM315.376 24.0909V59H311.354V24.0909H315.376Z" fill="white"/>
    </g>
    <defs>
    <filter id="filter0_b_644_4" x="84.2273" y="18.0909" width="237.149" height="47.5227" filterUnits="userSpaceOnUse" color-interpolation-filters="sRGB">
    <feFlood flood-opacity="0" result="BackgroundImageFix"/>
    <feGaussianBlur in="BackgroundImageFix" stdDeviation="3"/>
    <feComposite in2="SourceAlpha" operator="in" result="effect1_backgroundBlur_644_4"/>
    <feBlend mode="normal" in="SourceGraphic" in2="effect1_backgroundBlur_644_4" result="shape"/>
    </filter>
    </defs>
</svg>