<svg width="653" height="537" viewBox="0 0 653 537" fill="none" xmlns="http://www.w3.org/2000/svg">
<path d="M32 274.744V193.32L54.5 176.336L81.5 197.317L107.5 176.336V313.708L110.25 311.46L115 307.214L145.5 389.137H151L169 374.651L193.5 284.235L194.5 280.739L195.5 277.741L197 272.746L198.5 267.251L222 178.334L225.5 164.847L228 155.855L230.5 147.363L231.5 143.367L254 55.4491L301 1L343 29.9729L377.5 52.9515V239.277L424 319.203V346.177L473 376.649V470.561L502 483.549L527.5 471.721L553.5 412.116L558 398.129L561 358.666L566.5 356.668L652.5 471.721V536H1V300.72L16.5 287.732L32 274.744Z" fill="black" stroke="black"/>
</svg>
