<svg width="326" height="637" viewBox="0 0 326 637" fill="none" xmlns="http://www.w3.org/2000/svg">
<path d="M1 636L1.00049 379.5L29.9558 361L54.4181 277L59.9097 278.5V339L64.9019 337.5L94.3566 420L119.96 433.547L142.782 369.047L148.131 371L153.266 368L177.227 433.996L176.729 371L189.21 298L195.7 302.5L208.181 353L235.639 373.5L236.637 43.5L271.583 1L325.5 34.5V636H1Z" fill="black"/>
<path d="M1 636L1.00049 379.5L29.9558 361L54.4181 277L59.9097 278.5V339L64.9019 337.5L94.3566 420L119.96 433.547L142.782 369.047L148.131 371L153.266 368L177.229 434V434.162L176.729 371L189.21 298L195.7 302.5L208.181 353L235.639 373.5L236.637 43.5L271.583 1L325.5 34.5V636H1Z" stroke="black"/>
</svg>
