<svg width="1524" height="637" viewBox="0 0 1524 637" fill="none" xmlns="http://www.w3.org/2000/svg">
<path d="M56.4636 327L1 370.5V636H1523V34.5L1469.04 1L1434.06 43.5L1433.06 373.5L1405.58 353L1393.09 302.5L1386.59 298L1374.1 371L1374.6 433.996L1350.61 368L1345.47 371L1340.12 369.047L1317.28 433.547L1291.65 420L1262.17 337.5L1257.17 339V278.5L1251.68 277L1227.19 367L1198.21 385.5V572L1197.21 571L1112.27 456.5L1106.77 458.5L1103.78 498L1099.28 512L1073.3 571.661L1047.81 583.5L1018.83 570.5V482L969.863 451.5V419L923.394 339V152.5L888.917 129.5L846.944 100.5L803.944 162L719 481.5L697.043 489H691.546L661.066 407L656.319 411.25L653.571 413.5V276L627.588 297L600.606 276L578.121 293V374.5L547.141 400.5V174L507.667 114.5V61H500.172L477.687 141L476.188 438.5L445.208 418L417.009 486L385.248 466L357.766 544V460.5L309.462 424.85L252 187.5H243.84L236.845 186.35L232.848 218.5L218.357 319.5L212.861 322L114.925 242.5L84.9448 345L56.4636 327Z" fill="black"/>
<path d="M1 370.5L56.4636 327L84.9448 345L114.925 242.5L212.861 322L218.357 319.5L232.848 218.5L236.845 186.35L243.84 187.5H252L309.462 424.85L357.766 460.5V544L385.248 466L417.009 486L445.208 418L476.188 438.5L477.687 141L500.172 61H507.667V114.5L547.141 174V400.5L578.121 374.5V293L600.606 276L627.588 297L653.571 276V413.5L656.319 411.25L661.066 407L691.546 489H697.043L719 481.5L803.944 162L846.944 100.5L888.917 129.5L923.394 152.5V339L969.863 419V451.5L1018.83 482V570.5L1047.81 583.5L1073.3 571.661L1099.28 512L1103.78 498L1106.77 458.5L1112.27 456.5L1197.21 571L1198.21 572V385.5L1227.19 367L1251.68 277L1257.17 278.5V339L1262.17 337.5L1291.65 420L1317.28 433.547L1340.12 369.047L1345.47 371L1350.61 368L1374.6 434V434.162L1374.1 371L1386.59 298L1393.09 302.5L1405.58 353L1433.06 373.5L1434.06 43.5L1469.04 1L1523 34.5V636H1V370.5Z" stroke="black"/>
</svg>
