<svg width="52" height="23" viewBox="0 0 52 23" fill="none" xmlns="http://www.w3.org/2000/svg">
<path d="M44.4401 7.56486C35.3038 14.2309 27.5826 21.4135 6.15949 7.56486C12.679 2.61086 29.4625 -4.32473 44.4401 7.56486Z" fill="black"/>
<path d="M5.45709 13.6447C22.3146 28.7769 39.8745 19.9498 46.1961 13.6447C51.1129 8.74083 54.6248 0.133903 44.4401 7.56486C35.3038 14.2309 27.5826 21.4135 6.15949 7.56486C1.24267 4.38647 -2.12879 6.07867 5.45709 13.6447Z" fill="black"/>
<path d="M44.4401 7.56486C54.6248 0.133903 51.1129 8.74083 46.1961 13.6447C39.8745 19.9498 22.3146 28.7769 5.45709 13.6447C-2.12879 6.07867 1.24267 4.38647 6.15949 7.56486M44.4401 7.56486C35.3038 14.2309 27.5826 21.4135 6.15949 7.56486M44.4401 7.56486C29.4625 -4.32473 12.679 2.61086 6.15949 7.56486" stroke="white"/>
</svg>
