<svg width="29" height="38" viewBox="0 0 29 38" fill="none" xmlns="http://www.w3.org/2000/svg">
<mask id="path-1-inside-1_721_9" fill="white">
<path fill-rule="evenodd" clip-rule="evenodd" d="M18.4539 4.99133C18.684 5.32742 18.9151 5.66109 19.1454 5.99355C21.8909 9.95787 24.5164 13.749 23.9633 19.3786C23.9633 19.3781 23.9633 19.3776 23.9633 19.3772C23.9633 14.1305 19.71 9.87718 14.4633 9.87718C9.21664 9.87718 4.96334 14.1305 4.96334 19.3772C4.96334 19.386 4.96336 19.3949 4.96338 19.4037C4.44276 13.7482 7.10638 9.9714 9.89196 6.02167C10.125 5.69119 10.359 5.3595 10.592 5.02539C16.0342 -2.77866 9.59683 0.0100972 5.97619 3.79885C1.32105 8.67012 -5.05533 22.061 6.63481 34.5345C12.4662 40.1354 13.6885 37.5644 11.2108 33.9063C8.28647 29.5887 6.5428 26.0047 5.65179 22.9345C7.05979 26.4188 10.4745 28.8772 14.4633 28.8772C18.3476 28.8772 21.6874 26.546 23.16 23.2064C22.2211 26.2095 20.4647 29.6964 17.5885 33.8659C15.0796 37.5027 16.2799 40.084 22.1589 34.5332C33.9552 22.1599 27.6933 8.71509 23.08 3.80425C19.4918 -0.0152826 13.0785 -2.8589 18.4539 4.99133Z"/>
</mask>
<path fill-rule="evenodd" clip-rule="evenodd" d="M18.4539 4.99133C18.684 5.32742 18.9151 5.66109 19.1454 5.99355C21.8909 9.95787 24.5164 13.749 23.9633 19.3786C23.9633 19.3781 23.9633 19.3776 23.9633 19.3772C23.9633 14.1305 19.71 9.87718 14.4633 9.87718C9.21664 9.87718 4.96334 14.1305 4.96334 19.3772C4.96334 19.386 4.96336 19.3949 4.96338 19.4037C4.44276 13.7482 7.10638 9.9714 9.89196 6.02167C10.125 5.69119 10.359 5.3595 10.592 5.02539C16.0342 -2.77866 9.59683 0.0100972 5.97619 3.79885C1.32105 8.67012 -5.05533 22.061 6.63481 34.5345C12.4662 40.1354 13.6885 37.5644 11.2108 33.9063C8.28647 29.5887 6.5428 26.0047 5.65179 22.9345C7.05979 26.4188 10.4745 28.8772 14.4633 28.8772C18.3476 28.8772 21.6874 26.546 23.16 23.2064C22.2211 26.2095 20.4647 29.6964 17.5885 33.8659C15.0796 37.5027 16.2799 40.084 22.1589 34.5332C33.9552 22.1599 27.6933 8.71509 23.08 3.80425C19.4918 -0.0152826 13.0785 -2.8589 18.4539 4.99133Z" fill="black"/>
<path d="M19.1454 5.99355L18.3233 6.5629L18.3233 6.5629L19.1454 5.99355ZM18.4539 4.99133L17.6288 5.55631L17.6288 5.55631L18.4539 4.99133ZM23.9633 19.3786H22.9633L24.9586 19.4764L23.9633 19.3786ZM4.96338 19.4037L3.96759 19.4954L5.96338 19.401L4.96338 19.4037ZM9.89196 6.02167L9.07476 5.44533L9.07476 5.44533L9.89196 6.02167ZM10.592 5.02539L11.4122 5.5974L11.4122 5.5974L10.592 5.02539ZM5.97619 3.79885L6.69915 4.48974L6.69916 4.48974L5.97619 3.79885ZM6.63481 34.5345L5.90516 35.2183L5.92314 35.2375L5.94211 35.2557L6.63481 34.5345ZM11.2108 33.9063L12.0388 33.3455L12.0388 33.3455L11.2108 33.9063ZM5.65179 22.9345L6.57895 22.5598L4.69141 23.2132L5.65179 22.9345ZM23.16 23.2064L24.1145 23.5048L22.245 22.803L23.16 23.2064ZM17.5885 33.8659L16.7653 33.2981L16.7653 33.2981L17.5885 33.8659ZM22.1589 34.5332L22.8455 35.2603L22.8646 35.2422L22.8827 35.2232L22.1589 34.5332ZM23.08 3.80425L22.3511 4.48894L22.3511 4.48894L23.08 3.80425ZM19.9675 5.42421C19.737 5.09139 19.5074 4.75989 19.279 4.42635L17.6288 5.55631C17.8607 5.89494 18.0933 6.23079 18.3233 6.5629L19.9675 5.42421ZM24.9586 19.4764C25.5517 13.4388 22.6966 9.36489 19.9675 5.42421L18.3233 6.5629C21.0851 10.5508 23.4811 14.0592 22.9681 19.2808L24.9586 19.4764ZM22.9633 19.3772C22.9633 19.3772 22.9633 19.3772 22.9633 19.3772C22.9633 19.3772 22.9633 19.3772 22.9633 19.3772C22.9633 19.3772 22.9633 19.3772 22.9633 19.3772C22.9633 19.3772 22.9633 19.3772 22.9633 19.3772C22.9633 19.3772 22.9633 19.3772 22.9633 19.3772C22.9633 19.3772 22.9633 19.3772 22.9633 19.3772C22.9633 19.3772 22.9633 19.3772 22.9633 19.3772C22.9633 19.3772 22.9633 19.3772 22.9633 19.3772C22.9633 19.3772 22.9633 19.3772 22.9633 19.3772C22.9633 19.3772 22.9633 19.3772 22.9633 19.3772C22.9633 19.3772 22.9633 19.3772 22.9633 19.3772C22.9633 19.3772 22.9633 19.3772 22.9633 19.3772C22.9633 19.3772 22.9633 19.3772 22.9633 19.3772C22.9633 19.3772 22.9633 19.3772 22.9633 19.3772C22.9633 19.3772 22.9633 19.3772 22.9633 19.3772C22.9633 19.3772 22.9633 19.3772 22.9633 19.3772C22.9633 19.3772 22.9633 19.3772 22.9633 19.3772C22.9633 19.3772 22.9633 19.3772 22.9633 19.3772C22.9633 19.3772 22.9633 19.3772 22.9633 19.3772C22.9633 19.3772 22.9633 19.3772 22.9633 19.3772C22.9633 19.3772 22.9633 19.3772 22.9633 19.3772C22.9633 19.3772 22.9633 19.3772 22.9633 19.3772C22.9633 19.3772 22.9633 19.3772 22.9633 19.3772C22.9633 19.3772 22.9633 19.3772 22.9633 19.3772C22.9633 19.3772 22.9633 19.3772 22.9633 19.3772C22.9633 19.3772 22.9633 19.3772 22.9633 19.3772C22.9633 19.3772 22.9633 19.3773 22.9633 19.3773C22.9633 19.3773 22.9633 19.3773 22.9633 19.3773C22.9633 19.3773 22.9633 19.3773 22.9633 19.3773C22.9633 19.3773 22.9633 19.3773 22.9633 19.3773C22.9633 19.3773 22.9633 19.3773 22.9633 19.3773C22.9633 19.3773 22.9633 19.3773 22.9633 19.3773C22.9633 19.3773 22.9633 19.3773 22.9633 19.3773C22.9633 19.3773 22.9633 19.3773 22.9633 19.3773C22.9633 19.3773 22.9633 19.3773 22.9633 19.3773C22.9633 19.3773 22.9633 19.3773 22.9633 19.3773C22.9633 19.3773 22.9633 19.3773 22.9633 19.3773C22.9633 19.3773 22.9633 19.3773 22.9633 19.3773C22.9633 19.3773 22.9633 19.3773 22.9633 19.3773C22.9633 19.3773 22.9633 19.3773 22.9633 19.3773C22.9633 19.3773 22.9633 19.3773 22.9633 19.3773C22.9633 19.3773 22.9633 19.3773 22.9633 19.3773C22.9633 19.3773 22.9633 19.3773 22.9633 19.3773C22.9633 19.3773 22.9633 19.3773 22.9633 19.3773C22.9633 19.3773 22.9633 19.3773 22.9633 19.3773C22.9633 19.3773 22.9633 19.3773 22.9633 19.3773C22.9633 19.3773 22.9633 19.3773 22.9633 19.3773C22.9633 19.3773 22.9633 19.3773 22.9633 19.3773C22.9633 19.3773 22.9633 19.3773 22.9633 19.3773C22.9633 19.3773 22.9633 19.3773 22.9633 19.3773C22.9633 19.3773 22.9633 19.3773 22.9633 19.3773C22.9633 19.3773 22.9633 19.3773 22.9633 19.3773C22.9633 19.3773 22.9633 19.3773 22.9633 19.3773C22.9633 19.3773 22.9633 19.3773 22.9633 19.3773C22.9633 19.3773 22.9633 19.3773 22.9633 19.3773C22.9633 19.3773 22.9633 19.3773 22.9633 19.3773C22.9633 19.3773 22.9633 19.3773 22.9633 19.3773C22.9633 19.3773 22.9633 19.3773 22.9633 19.3773C22.9633 19.3773 22.9633 19.3773 22.9633 19.3773C22.9633 19.3773 22.9633 19.3773 22.9633 19.3773C22.9633 19.3773 22.9633 19.3773 22.9633 19.3773C22.9633 19.3773 22.9633 19.3773 22.9633 19.3773C22.9633 19.3773 22.9633 19.3774 22.9633 19.3774C22.9633 19.3774 22.9633 19.3774 22.9633 19.3774C22.9633 19.3774 22.9633 19.3774 22.9633 19.3774C22.9633 19.3774 22.9633 19.3774 22.9633 19.3774C22.9633 19.3774 22.9633 19.3774 22.9633 19.3774C22.9633 19.3774 22.9633 19.3774 22.9633 19.3774C22.9633 19.3774 22.9633 19.3774 22.9633 19.3774C22.9633 19.3774 22.9633 19.3774 22.9633 19.3774C22.9633 19.3774 22.9633 19.3774 22.9633 19.3774C22.9633 19.3774 22.9633 19.3774 22.9633 19.3774C22.9633 19.3774 22.9633 19.3774 22.9633 19.3774C22.9633 19.3774 22.9633 19.3774 22.9633 19.3774C22.9633 19.3774 22.9633 19.3774 22.9633 19.3774C22.9633 19.3774 22.9633 19.3774 22.9633 19.3774C22.9633 19.3774 22.9633 19.3774 22.9633 19.3774C22.9633 19.3774 22.9633 19.3774 22.9633 19.3774C22.9633 19.3774 22.9633 19.3774 22.9633 19.3774C22.9633 19.3774 22.9633 19.3774 22.9633 19.3774C22.9633 19.3774 22.9633 19.3774 22.9633 19.3774C22.9633 19.3774 22.9633 19.3774 22.9633 19.3774C22.9633 19.3774 22.9633 19.3774 22.9633 19.3774C22.9633 19.3774 22.9633 19.3774 22.9633 19.3774C22.9633 19.3774 22.9633 19.3774 22.9633 19.3774C22.9633 19.3774 22.9633 19.3774 22.9633 19.3774C22.9633 19.3774 22.9633 19.3774 22.9633 19.3774C22.9633 19.3774 22.9633 19.3774 22.9633 19.3774C22.9633 19.3774 22.9633 19.3774 22.9633 19.3774C22.9633 19.3774 22.9633 19.3774 22.9633 19.3774C22.9633 19.3774 22.9633 19.3774 22.9633 19.3774C22.9633 19.3774 22.9633 19.3774 22.9633 19.3774C22.9633 19.3774 22.9633 19.3774 22.9633 19.3774C22.9633 19.3774 22.9633 19.3774 22.9633 19.3774C22.9633 19.3774 22.9633 19.3774 22.9633 19.3774C22.9633 19.3774 22.9633 19.3774 22.9633 19.3774C22.9633 19.3774 22.9633 19.3774 22.9633 19.3774C22.9633 19.3774 22.9633 19.3774 22.9633 19.3774C22.9633 19.3774 22.9633 19.3775 22.9633 19.3775C22.9633 19.3775 22.9633 19.3775 22.9633 19.3775C22.9633 19.3775 22.9633 19.3775 22.9633 19.3775C22.9633 19.3775 22.9633 19.3775 22.9633 19.3775C22.9633 19.3775 22.9633 19.3775 22.9633 19.3775C22.9633 19.3775 22.9633 19.3775 22.9633 19.3775C22.9633 19.3775 22.9633 19.3775 22.9633 19.3775C22.9633 19.3775 22.9633 19.3775 22.9633 19.3775C22.9633 19.3775 22.9633 19.3775 22.9633 19.3775C22.9633 19.3775 22.9633 19.3775 22.9633 19.3775C22.9633 19.3775 22.9633 19.3775 22.9633 19.3775C22.9633 19.3775 22.9633 19.3775 22.9633 19.3775C22.9633 19.3775 22.9633 19.3775 22.9633 19.3775C22.9633 19.3775 22.9633 19.3775 22.9633 19.3775C22.9633 19.3775 22.9633 19.3775 22.9633 19.3775C22.9633 19.3775 22.9633 19.3775 22.9633 19.3775C22.9633 19.3775 22.9633 19.3775 22.9633 19.3775C22.9633 19.3775 22.9633 19.3775 22.9633 19.3775C22.9633 19.3775 22.9633 19.3775 22.9633 19.3775C22.9633 19.3775 22.9633 19.3775 22.9633 19.3775C22.9633 19.3775 22.9633 19.3775 22.9633 19.3775C22.9633 19.3775 22.9633 19.3775 22.9633 19.3775C22.9633 19.3775 22.9633 19.3775 22.9633 19.3775C22.9633 19.3775 22.9633 19.3775 22.9633 19.3775C22.9633 19.3775 22.9633 19.3775 22.9633 19.3775C22.9633 19.3775 22.9633 19.3775 22.9633 19.3775C22.9633 19.3775 22.9633 19.3775 22.9633 19.3775C22.9633 19.3775 22.9633 19.3775 22.9633 19.3775C22.9633 19.3775 22.9633 19.3775 22.9633 19.3775C22.9633 19.3775 22.9633 19.3775 22.9633 19.3775C22.9633 19.3775 22.9633 19.3775 22.9633 19.3775C22.9633 19.3775 22.9633 19.3775 22.9633 19.3775C22.9633 19.3775 22.9633 19.3775 22.9633 19.3775C22.9633 19.3775 22.9633 19.3775 22.9633 19.3775C22.9633 19.3775 22.9633 19.3775 22.9633 19.3775C22.9633 19.3775 22.9633 19.3775 22.9633 19.3775C22.9633 19.3775 22.9633 19.3776 22.9633 19.3776C22.9633 19.3776 22.9633 19.3776 22.9633 19.3776C22.9633 19.3776 22.9633 19.3776 22.9633 19.3776C22.9633 19.3776 22.9633 19.3776 22.9633 19.3776C22.9633 19.3776 22.9633 19.3776 22.9633 19.3776C22.9633 19.3776 22.9633 19.3776 22.9633 19.3776C22.9633 19.3776 22.9633 19.3776 22.9633 19.3776C22.9633 19.3776 22.9633 19.3776 22.9633 19.3776C22.9633 19.3776 22.9633 19.3776 22.9633 19.3776C22.9633 19.3776 22.9633 19.3776 22.9633 19.3776C22.9633 19.3776 22.9633 19.3776 22.9633 19.3776C22.9633 19.3776 22.9633 19.3776 22.9633 19.3776C22.9633 19.3776 22.9633 19.3776 22.9633 19.3776C22.9633 19.3776 22.9633 19.3776 22.9633 19.3776C22.9633 19.3776 22.9633 19.3776 22.9633 19.3776C22.9633 19.3776 22.9633 19.3776 22.9633 19.3776C22.9633 19.3776 22.9633 19.3776 22.9633 19.3776C22.9633 19.3776 22.9633 19.3776 22.9633 19.3776C22.9633 19.3776 22.9633 19.3776 22.9633 19.3776C22.9633 19.3776 22.9633 19.3776 22.9633 19.3776C22.9633 19.3776 22.9633 19.3776 22.9633 19.3776C22.9633 19.3776 22.9633 19.3776 22.9633 19.3776C22.9633 19.3776 22.9633 19.3776 22.9633 19.3776C22.9633 19.3776 22.9633 19.3776 22.9633 19.3776C22.9633 19.3776 22.9633 19.3776 22.9633 19.3776C22.9633 19.3776 22.9633 19.3776 22.9633 19.3776C22.9633 19.3776 22.9633 19.3776 22.9633 19.3776C22.9633 19.3776 22.9633 19.3776 22.9633 19.3776C22.9633 19.3776 22.9633 19.3776 22.9633 19.3776C22.9633 19.3776 22.9633 19.3776 22.9633 19.3776C22.9633 19.3776 22.9633 19.3776 22.9633 19.3776C22.9633 19.3776 22.9633 19.3776 22.9633 19.3776C22.9633 19.3776 22.9633 19.3776 22.9633 19.3776C22.9633 19.3776 22.9633 19.3776 22.9633 19.3776C22.9633 19.3776 22.9633 19.3776 22.9633 19.3776C22.9633 19.3776 22.9633 19.3776 22.9633 19.3776C22.9633 19.3776 22.9633 19.3776 22.9633 19.3777C22.9633 19.3777 22.9633 19.3777 22.9633 19.3777C22.9633 19.3777 22.9633 19.3777 22.9633 19.3777C22.9633 19.3777 22.9633 19.3777 22.9633 19.3777C22.9633 19.3777 22.9633 19.3777 22.9633 19.3777C22.9633 19.3777 22.9633 19.3777 22.9633 19.3777C22.9633 19.3777 22.9633 19.3777 22.9633 19.3777C22.9633 19.3777 22.9633 19.3777 22.9633 19.3777C22.9633 19.3777 22.9633 19.3777 22.9633 19.3777C22.9633 19.3777 22.9633 19.3777 22.9633 19.3777C22.9633 19.3777 22.9633 19.3777 22.9633 19.3777C22.9633 19.3777 22.9633 19.3777 22.9633 19.3777C22.9633 19.3777 22.9633 19.3777 22.9633 19.3777C22.9633 19.3777 22.9633 19.3777 22.9633 19.3777C22.9633 19.3777 22.9633 19.3777 22.9633 19.3777C22.9633 19.3777 22.9633 19.3777 22.9633 19.3777C22.9633 19.3777 22.9633 19.3777 22.9633 19.3777C22.9633 19.3777 22.9633 19.3777 22.9633 19.3777C22.9633 19.3777 22.9633 19.3777 22.9633 19.3777C22.9633 19.3777 22.9633 19.3777 22.9633 19.3777C22.9633 19.3777 22.9633 19.3777 22.9633 19.3777C22.9633 19.3777 22.9633 19.3777 22.9633 19.3777C22.9633 19.3777 22.9633 19.3777 22.9633 19.3777C22.9633 19.3777 22.9633 19.3777 22.9633 19.3777C22.9633 19.3777 22.9633 19.3777 22.9633 19.3777C22.9633 19.3777 22.9633 19.3777 22.9633 19.3777C22.9633 19.3777 22.9633 19.3777 22.9633 19.3777C22.9633 19.3777 22.9633 19.3777 22.9633 19.3777C22.9633 19.3777 22.9633 19.3777 22.9633 19.3777C22.9633 19.3777 22.9633 19.3777 22.9633 19.3777C22.9633 19.3777 22.9633 19.3777 22.9633 19.3777C22.9633 19.3777 22.9633 19.3777 22.9633 19.3777C22.9633 19.3777 22.9633 19.3777 22.9633 19.3777C22.9633 19.3777 22.9633 19.3777 22.9633 19.3777C22.9633 19.3777 22.9633 19.3777 22.9633 19.3777C22.9633 19.3777 22.9633 19.3777 22.9633 19.3777C22.9633 19.3777 22.9633 19.3777 22.9633 19.3778C22.9633 19.3778 22.9633 19.3778 22.9633 19.3778C22.9633 19.3778 22.9633 19.3778 22.9633 19.3778C22.9633 19.3778 22.9633 19.3778 22.9633 19.3778C22.9633 19.3778 22.9633 19.3778 22.9633 19.3778C22.9633 19.3778 22.9633 19.3778 22.9633 19.3778C22.9633 19.3778 22.9633 19.3778 22.9633 19.3778C22.9633 19.3778 22.9633 19.3778 22.9633 19.3778C22.9633 19.3778 22.9633 19.3778 22.9633 19.3778C22.9633 19.3778 22.9633 19.3778 22.9633 19.3778C22.9633 19.3778 22.9633 19.3778 22.9633 19.3778C22.9633 19.3778 22.9633 19.3778 22.9633 19.3778C22.9633 19.3778 22.9633 19.3778 22.9633 19.3778C22.9633 19.3778 22.9633 19.3778 22.9633 19.3778C22.9633 19.3778 22.9633 19.3778 22.9633 19.3778C22.9633 19.3778 22.9633 19.3778 22.9633 19.3778C22.9633 19.3778 22.9633 19.3778 22.9633 19.3778C22.9633 19.3778 22.9633 19.3778 22.9633 19.3778C22.9633 19.3778 22.9633 19.3778 22.9633 19.3778C22.9633 19.3778 22.9633 19.3778 22.9633 19.3778C22.9633 19.3778 22.9633 19.3778 22.9633 19.3778C22.9633 19.3778 22.9633 19.3778 22.9633 19.3778C22.9633 19.3778 22.9633 19.3778 22.9633 19.3778C22.9633 19.3778 22.9633 19.3778 22.9633 19.3778C22.9633 19.3778 22.9633 19.3778 22.9633 19.3778C22.9633 19.3778 22.9633 19.3778 22.9633 19.3778C22.9633 19.3778 22.9633 19.3778 22.9633 19.3778C22.9633 19.3778 22.9633 19.3778 22.9633 19.3778C22.9633 19.3778 22.9633 19.3778 22.9633 19.3778C22.9633 19.3778 22.9633 19.3778 22.9633 19.3778C22.9633 19.3778 22.9633 19.3778 22.9633 19.3778C22.9633 19.3778 22.9633 19.3778 22.9633 19.3778C22.9633 19.3778 22.9633 19.3778 22.9633 19.3778C22.9633 19.3778 22.9633 19.3778 22.9633 19.3778C22.9633 19.3778 22.9633 19.3778 22.9633 19.3778C22.9633 19.3778 22.9633 19.3778 22.9633 19.3778C22.9633 19.3778 22.9633 19.3778 22.9633 19.3779C22.9633 19.3779 22.9633 19.3779 22.9633 19.3779C22.9633 19.3779 22.9633 19.3779 22.9633 19.3779C22.9633 19.3779 22.9633 19.3779 22.9633 19.3779C22.9633 19.3779 22.9633 19.3779 22.9633 19.3779C22.9633 19.3779 22.9633 19.3779 22.9633 19.3779C22.9633 19.3779 22.9633 19.3779 22.9633 19.3779C22.9633 19.3779 22.9633 19.3779 22.9633 19.3779C22.9633 19.3779 22.9633 19.3779 22.9633 19.3779C22.9633 19.3779 22.9633 19.3779 22.9633 19.3779C22.9633 19.3779 22.9633 19.3779 22.9633 19.3779C22.9633 19.3779 22.9633 19.3779 22.9633 19.3779C22.9633 19.3779 22.9633 19.3779 22.9633 19.3779C22.9633 19.3779 22.9633 19.3779 22.9633 19.3779C22.9633 19.3779 22.9633 19.3779 22.9633 19.3779C22.9633 19.3779 22.9633 19.3779 22.9633 19.3779C22.9633 19.3779 22.9633 19.3779 22.9633 19.3779C22.9633 19.3779 22.9633 19.3779 22.9633 19.3779C22.9633 19.3779 22.9633 19.3779 22.9633 19.3779C22.9633 19.3779 22.9633 19.3779 22.9633 19.3779C22.9633 19.3779 22.9633 19.3779 22.9633 19.3779C22.9633 19.3779 22.9633 19.3779 22.9633 19.3779C22.9633 19.3779 22.9633 19.3779 22.9633 19.3779C22.9633 19.3779 22.9633 19.3779 22.9633 19.3779C22.9633 19.3779 22.9633 19.3779 22.9633 19.3779C22.9633 19.3779 22.9633 19.3779 22.9633 19.3779C22.9633 19.3779 22.9633 19.3779 22.9633 19.3779C22.9633 19.3779 22.9633 19.3779 22.9633 19.3779C22.9633 19.3779 22.9633 19.3779 22.9633 19.3779C22.9633 19.3779 22.9633 19.3779 22.9633 19.3779C22.9633 19.3779 22.9633 19.3779 22.9633 19.3779C22.9633 19.3779 22.9633 19.3779 22.9633 19.3779C22.9633 19.3779 22.9633 19.3779 22.9633 19.3779C22.9633 19.3779 22.9633 19.3779 22.9633 19.3779C22.9633 19.3779 22.9633 19.3779 22.9633 19.3779C22.9633 19.3779 22.9633 19.3779 22.9633 19.3779C22.9633 19.3779 22.9633 19.3779 22.9633 19.378C22.9633 19.378 22.9633 19.378 22.9633 19.378C22.9633 19.378 22.9633 19.378 22.9633 19.378C22.9633 19.378 22.9633 19.378 22.9633 19.378C22.9633 19.378 22.9633 19.378 22.9633 19.378C22.9633 19.378 22.9633 19.378 22.9633 19.378C22.9633 19.378 22.9633 19.378 22.9633 19.378C22.9633 19.378 22.9633 19.378 22.9633 19.378C22.9633 19.378 22.9633 19.378 22.9633 19.378C22.9633 19.378 22.9633 19.378 22.9633 19.378C22.9633 19.378 22.9633 19.378 22.9633 19.378C22.9633 19.378 22.9633 19.378 22.9633 19.378C22.9633 19.378 22.9633 19.378 22.9633 19.378C22.9633 19.378 22.9633 19.378 22.9633 19.378C22.9633 19.378 22.9633 19.378 22.9633 19.378C22.9633 19.378 22.9633 19.378 22.9633 19.378C22.9633 19.378 22.9633 19.378 22.9633 19.378C22.9633 19.378 22.9633 19.378 22.9633 19.378C22.9633 19.378 22.9633 19.378 22.9633 19.378C22.9633 19.378 22.9633 19.378 22.9633 19.378C22.9633 19.378 22.9633 19.378 22.9633 19.378C22.9633 19.378 22.9633 19.378 22.9633 19.378C22.9633 19.378 22.9633 19.378 22.9633 19.378C22.9633 19.378 22.9633 19.378 22.9633 19.378C22.9633 19.378 22.9633 19.378 22.9633 19.378C22.9633 19.378 22.9633 19.378 22.9633 19.378C22.9633 19.378 22.9633 19.378 22.9633 19.378C22.9633 19.378 22.9633 19.378 22.9633 19.378C22.9633 19.378 22.9633 19.378 22.9633 19.378C22.9633 19.378 22.9633 19.378 22.9633 19.378C22.9633 19.378 22.9633 19.378 22.9633 19.378C22.9633 19.378 22.9633 19.378 22.9633 19.378C22.9633 19.378 22.9633 19.378 22.9633 19.378C22.9633 19.378 22.9633 19.378 22.9633 19.378C22.9633 19.378 22.9633 19.378 22.9633 19.378C22.9633 19.378 22.9633 19.378 22.9633 19.378C22.9633 19.378 22.9633 19.378 22.9633 19.378C22.9633 19.3781 22.9633 19.3781 22.9633 19.3781C22.9633 19.3781 22.9633 19.3781 22.9633 19.3781C22.9633 19.3781 22.9633 19.3781 22.9633 19.3781C22.9633 19.3781 22.9633 19.3781 22.9633 19.3781C22.9633 19.3781 22.9633 19.3781 22.9633 19.3781C22.9633 19.3781 22.9633 19.3781 22.9633 19.3781C22.9633 19.3781 22.9633 19.3781 22.9633 19.3781C22.9633 19.3781 22.9633 19.3781 22.9633 19.3781C22.9633 19.3781 22.9633 19.3781 22.9633 19.3781C22.9633 19.3781 22.9633 19.3781 22.9633 19.3781C22.9633 19.3781 22.9633 19.3781 22.9633 19.3781C22.9633 19.3781 22.9633 19.3781 22.9633 19.3781C22.9633 19.3781 22.9633 19.3781 22.9633 19.3781C22.9633 19.3781 22.9633 19.3781 22.9633 19.3781C22.9633 19.3781 22.9633 19.3781 22.9633 19.3781C22.9633 19.3781 22.9633 19.3781 22.9633 19.3781C22.9633 19.3781 22.9633 19.3781 22.9633 19.3781C22.9633 19.3781 22.9633 19.3781 22.9633 19.3781C22.9633 19.3781 22.9633 19.3781 22.9633 19.3781C22.9633 19.3781 22.9633 19.3781 22.9633 19.3781C22.9633 19.3781 22.9633 19.3781 22.9633 19.3781C22.9633 19.3781 22.9633 19.3781 22.9633 19.3781C22.9633 19.3781 22.9633 19.3781 22.9633 19.3781C22.9633 19.3781 22.9633 19.3781 22.9633 19.3781C22.9633 19.3781 22.9633 19.3781 22.9633 19.3781C22.9633 19.3781 22.9633 19.3781 22.9633 19.3781C22.9633 19.3781 22.9633 19.3781 22.9633 19.3781C22.9633 19.3781 22.9633 19.3781 22.9633 19.3781C22.9633 19.3781 22.9633 19.3781 22.9633 19.3781C22.9633 19.3781 22.9633 19.3781 22.9633 19.3781C22.9633 19.3781 22.9633 19.3781 22.9633 19.3781C22.9633 19.3781 22.9633 19.3781 22.9633 19.3781C22.9633 19.3781 22.9633 19.3781 22.9633 19.3781C22.9633 19.3781 22.9633 19.3781 22.9633 19.3781C22.9633 19.3781 22.9633 19.3781 22.9633 19.3781C22.9633 19.3781 22.9633 19.3781 22.9633 19.3781C22.9633 19.3782 22.9633 19.3782 22.9633 19.3782C22.9633 19.3782 22.9633 19.3782 22.9633 19.3782C22.9633 19.3782 22.9633 19.3782 22.9633 19.3782C22.9633 19.3782 22.9633 19.3782 22.9633 19.3782C22.9633 19.3782 22.9633 19.3782 22.9633 19.3782C22.9633 19.3782 22.9633 19.3782 22.9633 19.3782C22.9633 19.3782 22.9633 19.3782 22.9633 19.3782C22.9633 19.3782 22.9633 19.3782 22.9633 19.3782C22.9633 19.3782 22.9633 19.3782 22.9633 19.3782C22.9633 19.3782 22.9633 19.3782 22.9633 19.3782C22.9633 19.3782 22.9633 19.3782 22.9633 19.3782C22.9633 19.3782 22.9633 19.3782 22.9633 19.3782C22.9633 19.3782 22.9633 19.3782 22.9633 19.3782C22.9633 19.3782 22.9633 19.3782 22.9633 19.3782C22.9633 19.3782 22.9633 19.3782 22.9633 19.3782C22.9633 19.3782 22.9633 19.3782 22.9633 19.3782C22.9633 19.3782 22.9633 19.3782 22.9633 19.3782C22.9633 19.3782 22.9633 19.3782 22.9633 19.3782C22.9633 19.3782 22.9633 19.3782 22.9633 19.3782C22.9633 19.3782 22.9633 19.3782 22.9633 19.3782C22.9633 19.3782 22.9633 19.3782 22.9633 19.3782C22.9633 19.3782 22.9633 19.3782 22.9633 19.3782C22.9633 19.3782 22.9633 19.3782 22.9633 19.3782C22.9633 19.3782 22.9633 19.3782 22.9633 19.3782C22.9633 19.3782 22.9633 19.3782 22.9633 19.3782C22.9633 19.3782 22.9633 19.3782 22.9633 19.3782C22.9633 19.3782 22.9633 19.3782 22.9633 19.3782C22.9633 19.3782 22.9633 19.3782 22.9633 19.3782C22.9633 19.3782 22.9633 19.3782 22.9633 19.3782C22.9633 19.3782 22.9633 19.3782 22.9633 19.3782C22.9633 19.3782 22.9633 19.3782 22.9633 19.3782C22.9633 19.3782 22.9633 19.3782 22.9633 19.3782C22.9633 19.3782 22.9633 19.3782 22.9633 19.3782C22.9633 19.3782 22.9633 19.3782 22.9633 19.3782C22.9633 19.3782 22.9633 19.3782 22.9633 19.3782C22.9633 19.3782 22.9633 19.3782 22.9633 19.3782C22.9633 19.3783 22.9633 19.3783 22.9633 19.3783C22.9633 19.3783 22.9633 19.3783 22.9633 19.3783C22.9633 19.3783 22.9633 19.3783 22.9633 19.3783C22.9633 19.3783 22.9633 19.3783 22.9633 19.3783C22.9633 19.3783 22.9633 19.3783 22.9633 19.3783C22.9633 19.3783 22.9633 19.3783 22.9633 19.3783C22.9633 19.3783 22.9633 19.3783 22.9633 19.3783C22.9633 19.3783 22.9633 19.3783 22.9633 19.3783C22.9633 19.3783 22.9633 19.3783 22.9633 19.3783C22.9633 19.3783 22.9633 19.3783 22.9633 19.3783C22.9633 19.3783 22.9633 19.3783 22.9633 19.3783C22.9633 19.3783 22.9633 19.3783 22.9633 19.3783C22.9633 19.3783 22.9633 19.3783 22.9633 19.3783C22.9633 19.3783 22.9633 19.3783 22.9633 19.3783C22.9633 19.3783 22.9633 19.3783 22.9633 19.3783C22.9633 19.3783 22.9633 19.3783 22.9633 19.3783C22.9633 19.3783 22.9633 19.3783 22.9633 19.3783C22.9633 19.3783 22.9633 19.3783 22.9633 19.3783C22.9633 19.3783 22.9633 19.3783 22.9633 19.3783C22.9633 19.3783 22.9633 19.3783 22.9633 19.3783C22.9633 19.3783 22.9633 19.3783 22.9633 19.3783C22.9633 19.3783 22.9633 19.3783 22.9633 19.3783C22.9633 19.3783 22.9633 19.3783 22.9633 19.3783C22.9633 19.3783 22.9633 19.3783 22.9633 19.3783C22.9633 19.3783 22.9633 19.3783 22.9633 19.3783C22.9633 19.3783 22.9633 19.3783 22.9633 19.3783C22.9633 19.3783 22.9633 19.3783 22.9633 19.3783C22.9633 19.3783 22.9633 19.3783 22.9633 19.3783C22.9633 19.3783 22.9633 19.3783 22.9633 19.3783C22.9633 19.3783 22.9633 19.3783 22.9633 19.3783C22.9633 19.3783 22.9633 19.3783 22.9633 19.3783C22.9633 19.3783 22.9633 19.3783 22.9633 19.3783C22.9633 19.3783 22.9633 19.3783 22.9633 19.3783C22.9633 19.3783 22.9633 19.3783 22.9633 19.3783C22.9633 19.3783 22.9633 19.3783 22.9633 19.3783C22.9633 19.3783 22.9633 19.3783 22.9633 19.3783C22.9633 19.3784 22.9633 19.3784 22.9633 19.3784C22.9633 19.3784 22.9633 19.3784 22.9633 19.3784C22.9633 19.3784 22.9633 19.3784 22.9633 19.3784C22.9633 19.3784 22.9633 19.3784 22.9633 19.3784C22.9633 19.3784 22.9633 19.3784 22.9633 19.3784C22.9633 19.3784 22.9633 19.3784 22.9633 19.3784C22.9633 19.3784 22.9633 19.3784 22.9633 19.3784C22.9633 19.3784 22.9633 19.3784 22.9633 19.3784C22.9633 19.3784 22.9633 19.3784 22.9633 19.3784C22.9633 19.3784 22.9633 19.3784 22.9633 19.3784C22.9633 19.3784 22.9633 19.3784 22.9633 19.3784C22.9633 19.3784 22.9633 19.3784 22.9633 19.3784C22.9633 19.3784 22.9633 19.3784 22.9633 19.3784C22.9633 19.3784 22.9633 19.3784 22.9633 19.3784C22.9633 19.3784 22.9633 19.3784 22.9633 19.3784C22.9633 19.3784 22.9633 19.3784 22.9633 19.3784C22.9633 19.3784 22.9633 19.3784 22.9633 19.3784C22.9633 19.3784 22.9633 19.3784 22.9633 19.3784C22.9633 19.3784 22.9633 19.3784 22.9633 19.3784C22.9633 19.3784 22.9633 19.3784 22.9633 19.3784C22.9633 19.3784 22.9633 19.3784 22.9633 19.3784C22.9633 19.3784 22.9633 19.3784 22.9633 19.3784C22.9633 19.3784 22.9633 19.3784 22.9633 19.3784C22.9633 19.3784 22.9633 19.3784 22.9633 19.3784C22.9633 19.3784 22.9633 19.3784 22.9633 19.3784C22.9633 19.3784 22.9633 19.3784 22.9633 19.3784C22.9633 19.3784 22.9633 19.3784 22.9633 19.3784C22.9633 19.3784 22.9633 19.3784 22.9633 19.3784C22.9633 19.3784 22.9633 19.3784 22.9633 19.3784C22.9633 19.3784 22.9633 19.3784 22.9633 19.3784C22.9633 19.3784 22.9633 19.3784 22.9633 19.3784C22.9633 19.3784 22.9633 19.3784 22.9633 19.3784C22.9633 19.3784 22.9633 19.3784 22.9633 19.3784C22.9633 19.3784 22.9633 19.3784 22.9633 19.3784C22.9633 19.3784 22.9633 19.3784 22.9633 19.3784C22.9633 19.3784 22.9633 19.3784 22.9633 19.3784C22.9633 19.3784 22.9633 19.3785 22.9633 19.3785C22.9633 19.3785 22.9633 19.3785 22.9633 19.3785C22.9633 19.3785 22.9633 19.3785 22.9633 19.3785C22.9633 19.3785 22.9633 19.3785 22.9633 19.3785C22.9633 19.3785 22.9633 19.3785 22.9633 19.3785C22.9633 19.3785 22.9633 19.3785 22.9633 19.3785C22.9633 19.3785 22.9633 19.3785 22.9633 19.3785C22.9633 19.3785 22.9633 19.3785 22.9633 19.3785C22.9633 19.3785 22.9633 19.3785 22.9633 19.3785C22.9633 19.3785 22.9633 19.3785 22.9633 19.3785C22.9633 19.3785 22.9633 19.3785 22.9633 19.3785C22.9633 19.3785 22.9633 19.3785 22.9633 19.3785C22.9633 19.3785 22.9633 19.3785 22.9633 19.3785C22.9633 19.3785 22.9633 19.3785 22.9633 19.3785C22.9633 19.3785 22.9633 19.3785 22.9633 19.3785C22.9633 19.3785 22.9633 19.3785 22.9633 19.3785C22.9633 19.3785 22.9633 19.3785 22.9633 19.3785C22.9633 19.3785 22.9633 19.3785 22.9633 19.3785C22.9633 19.3785 22.9633 19.3785 22.9633 19.3785C22.9633 19.3785 22.9633 19.3785 22.9633 19.3785C22.9633 19.3785 22.9633 19.3785 22.9633 19.3785C22.9633 19.3785 22.9633 19.3785 22.9633 19.3785C22.9633 19.3785 22.9633 19.3785 22.9633 19.3785C22.9633 19.3785 22.9633 19.3785 22.9633 19.3785C22.9633 19.3785 22.9633 19.3785 22.9633 19.3785C22.9633 19.3785 22.9633 19.3785 22.9633 19.3785C22.9633 19.3785 22.9633 19.3785 22.9633 19.3785C22.9633 19.3785 22.9633 19.3785 22.9633 19.3785C22.9633 19.3785 22.9633 19.3785 22.9633 19.3785C22.9633 19.3785 22.9633 19.3785 22.9633 19.3785C22.9633 19.3785 22.9633 19.3785 22.9633 19.3785C22.9633 19.3785 22.9633 19.3785 22.9633 19.3785C22.9633 19.3785 22.9633 19.3785 22.9633 19.3785C22.9633 19.3785 22.9633 19.3785 22.9633 19.3785C22.9633 19.3785 22.9633 19.3785 22.9633 19.3785C22.9633 19.3785 22.9633 19.3785 22.9633 19.3785C22.9633 19.3785 22.9633 19.3786 22.9633 19.3786C22.9633 19.3786 22.9633 19.3786 22.9633 19.3786C22.9633 19.3786 22.9633 19.3786 22.9633 19.3786C22.9633 19.3786 22.9633 19.3786 22.9633 19.3786C22.9633 19.3786 22.9633 19.3786 22.9633 19.3786C22.9633 19.3786 22.9633 19.3786 22.9633 19.3786C22.9633 19.3786 22.9633 19.3786 22.9633 19.3786C22.9633 19.3786 22.9633 19.3786 22.9633 19.3786C22.9633 19.3786 22.9633 19.3786 22.9633 19.3786C22.9633 19.3786 22.9633 19.3786 22.9633 19.3786C22.9633 19.3786 22.9633 19.3786 22.9633 19.3786C22.9633 19.3786 22.9633 19.3786 22.9633 19.3786C22.9633 19.3786 22.9633 19.3786 22.9633 19.3786C22.9633 19.3786 22.9633 19.3786 22.9633 19.3786C22.9633 19.3786 22.9633 19.3786 22.9633 19.3786C22.9633 19.3786 22.9633 19.3786 22.9633 19.3786C22.9633 19.3786 22.9633 19.3786 22.9633 19.3786H24.9633C24.9633 19.3786 24.9633 19.3786 24.9633 19.3786C24.9633 19.3786 24.9633 19.3786 24.9633 19.3786C24.9633 19.3786 24.9633 19.3786 24.9633 19.3786C24.9633 19.3786 24.9633 19.3786 24.9633 19.3786C24.9633 19.3786 24.9633 19.3786 24.9633 19.3786C24.9633 19.3786 24.9633 19.3786 24.9633 19.3786C24.9633 19.3786 24.9633 19.3786 24.9633 19.3786C24.9633 19.3786 24.9633 19.3786 24.9633 19.3786C24.9633 19.3786 24.9633 19.3786 24.9633 19.3786C24.9633 19.3786 24.9633 19.3786 24.9633 19.3786C24.9633 19.3786 24.9633 19.3786 24.9633 19.3786C24.9633 19.3786 24.9633 19.3786 24.9633 19.3786C24.9633 19.3786 24.9633 19.3786 24.9633 19.3786C24.9633 19.3786 24.9633 19.3786 24.9633 19.3786C24.9633 19.3786 24.9633 19.3786 24.9633 19.3786C24.9633 19.3786 24.9633 19.3786 24.9633 19.3786C24.9633 19.3786 24.9633 19.3785 24.9633 19.3785C24.9633 19.3785 24.9633 19.3785 24.9633 19.3785C24.9633 19.3785 24.9633 19.3785 24.9633 19.3785C24.9633 19.3785 24.9633 19.3785 24.9633 19.3785C24.9633 19.3785 24.9633 19.3785 24.9633 19.3785C24.9633 19.3785 24.9633 19.3785 24.9633 19.3785C24.9633 19.3785 24.9633 19.3785 24.9633 19.3785C24.9633 19.3785 24.9633 19.3785 24.9633 19.3785C24.9633 19.3785 24.9633 19.3785 24.9633 19.3785C24.9633 19.3785 24.9633 19.3785 24.9633 19.3785C24.9633 19.3785 24.9633 19.3785 24.9633 19.3785C24.9633 19.3785 24.9633 19.3785 24.9633 19.3785C24.9633 19.3785 24.9633 19.3785 24.9633 19.3785C24.9633 19.3785 24.9633 19.3785 24.9633 19.3785C24.9633 19.3785 24.9633 19.3785 24.9633 19.3785C24.9633 19.3785 24.9633 19.3785 24.9633 19.3785C24.9633 19.3785 24.9633 19.3785 24.9633 19.3785C24.9633 19.3785 24.9633 19.3785 24.9633 19.3785C24.9633 19.3785 24.9633 19.3785 24.9633 19.3785C24.9633 19.3785 24.9633 19.3785 24.9633 19.3785C24.9633 19.3785 24.9633 19.3785 24.9633 19.3785C24.9633 19.3785 24.9633 19.3785 24.9633 19.3785C24.9633 19.3785 24.9633 19.3785 24.9633 19.3785C24.9633 19.3785 24.9633 19.3785 24.9633 19.3785C24.9633 19.3785 24.9633 19.3785 24.9633 19.3785C24.9633 19.3785 24.9633 19.3785 24.9633 19.3785C24.9633 19.3785 24.9633 19.3785 24.9633 19.3785C24.9633 19.3785 24.9633 19.3785 24.9633 19.3785C24.9633 19.3785 24.9633 19.3785 24.9633 19.3785C24.9633 19.3785 24.9633 19.3785 24.9633 19.3785C24.9633 19.3785 24.9633 19.3785 24.9633 19.3785C24.9633 19.3785 24.9633 19.3785 24.9633 19.3785C24.9633 19.3785 24.9633 19.3785 24.9633 19.3785C24.9633 19.3785 24.9633 19.3785 24.9633 19.3785C24.9633 19.3785 24.9633 19.3785 24.9633 19.3785C24.9633 19.3785 24.9633 19.3785 24.9633 19.3785C24.9633 19.3785 24.9633 19.3784 24.9633 19.3784C24.9633 19.3784 24.9633 19.3784 24.9633 19.3784C24.9633 19.3784 24.9633 19.3784 24.9633 19.3784C24.9633 19.3784 24.9633 19.3784 24.9633 19.3784C24.9633 19.3784 24.9633 19.3784 24.9633 19.3784C24.9633 19.3784 24.9633 19.3784 24.9633 19.3784C24.9633 19.3784 24.9633 19.3784 24.9633 19.3784C24.9633 19.3784 24.9633 19.3784 24.9633 19.3784C24.9633 19.3784 24.9633 19.3784 24.9633 19.3784C24.9633 19.3784 24.9633 19.3784 24.9633 19.3784C24.9633 19.3784 24.9633 19.3784 24.9633 19.3784C24.9633 19.3784 24.9633 19.3784 24.9633 19.3784C24.9633 19.3784 24.9633 19.3784 24.9633 19.3784C24.9633 19.3784 24.9633 19.3784 24.9633 19.3784C24.9633 19.3784 24.9633 19.3784 24.9633 19.3784C24.9633 19.3784 24.9633 19.3784 24.9633 19.3784C24.9633 19.3784 24.9633 19.3784 24.9633 19.3784C24.9633 19.3784 24.9633 19.3784 24.9633 19.3784C24.9633 19.3784 24.9633 19.3784 24.9633 19.3784C24.9633 19.3784 24.9633 19.3784 24.9633 19.3784C24.9633 19.3784 24.9633 19.3784 24.9633 19.3784C24.9633 19.3784 24.9633 19.3784 24.9633 19.3784C24.9633 19.3784 24.9633 19.3784 24.9633 19.3784C24.9633 19.3784 24.9633 19.3784 24.9633 19.3784C24.9633 19.3784 24.9633 19.3784 24.9633 19.3784C24.9633 19.3784 24.9633 19.3784 24.9633 19.3784C24.9633 19.3784 24.9633 19.3784 24.9633 19.3784C24.9633 19.3784 24.9633 19.3784 24.9633 19.3784C24.9633 19.3784 24.9633 19.3784 24.9633 19.3784C24.9633 19.3784 24.9633 19.3784 24.9633 19.3784C24.9633 19.3784 24.9633 19.3784 24.9633 19.3784C24.9633 19.3784 24.9633 19.3784 24.9633 19.3784C24.9633 19.3784 24.9633 19.3784 24.9633 19.3784C24.9633 19.3784 24.9633 19.3784 24.9633 19.3784C24.9633 19.3784 24.9633 19.3784 24.9633 19.3784C24.9633 19.3784 24.9633 19.3784 24.9633 19.3784C24.9633 19.3784 24.9633 19.3784 24.9633 19.3783C24.9633 19.3783 24.9633 19.3783 24.9633 19.3783C24.9633 19.3783 24.9633 19.3783 24.9633 19.3783C24.9633 19.3783 24.9633 19.3783 24.9633 19.3783C24.9633 19.3783 24.9633 19.3783 24.9633 19.3783C24.9633 19.3783 24.9633 19.3783 24.9633 19.3783C24.9633 19.3783 24.9633 19.3783 24.9633 19.3783C24.9633 19.3783 24.9633 19.3783 24.9633 19.3783C24.9633 19.3783 24.9633 19.3783 24.9633 19.3783C24.9633 19.3783 24.9633 19.3783 24.9633 19.3783C24.9633 19.3783 24.9633 19.3783 24.9633 19.3783C24.9633 19.3783 24.9633 19.3783 24.9633 19.3783C24.9633 19.3783 24.9633 19.3783 24.9633 19.3783C24.9633 19.3783 24.9633 19.3783 24.9633 19.3783C24.9633 19.3783 24.9633 19.3783 24.9633 19.3783C24.9633 19.3783 24.9633 19.3783 24.9633 19.3783C24.9633 19.3783 24.9633 19.3783 24.9633 19.3783C24.9633 19.3783 24.9633 19.3783 24.9633 19.3783C24.9633 19.3783 24.9633 19.3783 24.9633 19.3783C24.9633 19.3783 24.9633 19.3783 24.9633 19.3783C24.9633 19.3783 24.9633 19.3783 24.9633 19.3783C24.9633 19.3783 24.9633 19.3783 24.9633 19.3783C24.9633 19.3783 24.9633 19.3783 24.9633 19.3783C24.9633 19.3783 24.9633 19.3783 24.9633 19.3783C24.9633 19.3783 24.9633 19.3783 24.9633 19.3783C24.9633 19.3783 24.9633 19.3783 24.9633 19.3783C24.9633 19.3783 24.9633 19.3783 24.9633 19.3783C24.9633 19.3783 24.9633 19.3783 24.9633 19.3783C24.9633 19.3783 24.9633 19.3783 24.9633 19.3783C24.9633 19.3783 24.9633 19.3783 24.9633 19.3783C24.9633 19.3783 24.9633 19.3783 24.9633 19.3783C24.9633 19.3783 24.9633 19.3783 24.9633 19.3783C24.9633 19.3783 24.9633 19.3783 24.9633 19.3783C24.9633 19.3783 24.9633 19.3783 24.9633 19.3783C24.9633 19.3783 24.9633 19.3783 24.9633 19.3783C24.9633 19.3783 24.9633 19.3783 24.9633 19.3783C24.9633 19.3783 24.9633 19.3783 24.9633 19.3782C24.9633 19.3782 24.9633 19.3782 24.9633 19.3782C24.9633 19.3782 24.9633 19.3782 24.9633 19.3782C24.9633 19.3782 24.9633 19.3782 24.9633 19.3782C24.9633 19.3782 24.9633 19.3782 24.9633 19.3782C24.9633 19.3782 24.9633 19.3782 24.9633 19.3782C24.9633 19.3782 24.9633 19.3782 24.9633 19.3782C24.9633 19.3782 24.9633 19.3782 24.9633 19.3782C24.9633 19.3782 24.9633 19.3782 24.9633 19.3782C24.9633 19.3782 24.9633 19.3782 24.9633 19.3782C24.9633 19.3782 24.9633 19.3782 24.9633 19.3782C24.9633 19.3782 24.9633 19.3782 24.9633 19.3782C24.9633 19.3782 24.9633 19.3782 24.9633 19.3782C24.9633 19.3782 24.9633 19.3782 24.9633 19.3782C24.9633 19.3782 24.9633 19.3782 24.9633 19.3782C24.9633 19.3782 24.9633 19.3782 24.9633 19.3782C24.9633 19.3782 24.9633 19.3782 24.9633 19.3782C24.9633 19.3782 24.9633 19.3782 24.9633 19.3782C24.9633 19.3782 24.9633 19.3782 24.9633 19.3782C24.9633 19.3782 24.9633 19.3782 24.9633 19.3782C24.9633 19.3782 24.9633 19.3782 24.9633 19.3782C24.9633 19.3782 24.9633 19.3782 24.9633 19.3782C24.9633 19.3782 24.9633 19.3782 24.9633 19.3782C24.9633 19.3782 24.9633 19.3782 24.9633 19.3782C24.9633 19.3782 24.9633 19.3782 24.9633 19.3782C24.9633 19.3782 24.9633 19.3782 24.9633 19.3782C24.9633 19.3782 24.9633 19.3782 24.9633 19.3782C24.9633 19.3782 24.9633 19.3782 24.9633 19.3782C24.9633 19.3782 24.9633 19.3782 24.9633 19.3782C24.9633 19.3782 24.9633 19.3782 24.9633 19.3782C24.9633 19.3782 24.9633 19.3782 24.9633 19.3782C24.9633 19.3782 24.9633 19.3782 24.9633 19.3782C24.9633 19.3782 24.9633 19.3782 24.9633 19.3782C24.9633 19.3782 24.9633 19.3782 24.9633 19.3782C24.9633 19.3782 24.9633 19.3782 24.9633 19.3782C24.9633 19.3782 24.9633 19.3782 24.9633 19.3782C24.9633 19.3782 24.9633 19.3782 24.9633 19.3781C24.9633 19.3781 24.9633 19.3781 24.9633 19.3781C24.9633 19.3781 24.9633 19.3781 24.9633 19.3781C24.9633 19.3781 24.9633 19.3781 24.9633 19.3781C24.9633 19.3781 24.9633 19.3781 24.9633 19.3781C24.9633 19.3781 24.9633 19.3781 24.9633 19.3781C24.9633 19.3781 24.9633 19.3781 24.9633 19.3781C24.9633 19.3781 24.9633 19.3781 24.9633 19.3781C24.9633 19.3781 24.9633 19.3781 24.9633 19.3781C24.9633 19.3781 24.9633 19.3781 24.9633 19.3781C24.9633 19.3781 24.9633 19.3781 24.9633 19.3781C24.9633 19.3781 24.9633 19.3781 24.9633 19.3781C24.9633 19.3781 24.9633 19.3781 24.9633 19.3781C24.9633 19.3781 24.9633 19.3781 24.9633 19.3781C24.9633 19.3781 24.9633 19.3781 24.9633 19.3781C24.9633 19.3781 24.9633 19.3781 24.9633 19.3781C24.9633 19.3781 24.9633 19.3781 24.9633 19.3781C24.9633 19.3781 24.9633 19.3781 24.9633 19.3781C24.9633 19.3781 24.9633 19.3781 24.9633 19.3781C24.9633 19.3781 24.9633 19.3781 24.9633 19.3781C24.9633 19.3781 24.9633 19.3781 24.9633 19.3781C24.9633 19.3781 24.9633 19.3781 24.9633 19.3781C24.9633 19.3781 24.9633 19.3781 24.9633 19.3781C24.9633 19.3781 24.9633 19.3781 24.9633 19.3781C24.9633 19.3781 24.9633 19.3781 24.9633 19.3781C24.9633 19.3781 24.9633 19.3781 24.9633 19.3781C24.9633 19.3781 24.9633 19.3781 24.9633 19.3781C24.9633 19.3781 24.9633 19.3781 24.9633 19.3781C24.9633 19.3781 24.9633 19.3781 24.9633 19.3781C24.9633 19.3781 24.9633 19.3781 24.9633 19.3781C24.9633 19.3781 24.9633 19.3781 24.9633 19.3781C24.9633 19.3781 24.9633 19.3781 24.9633 19.3781C24.9633 19.3781 24.9633 19.3781 24.9633 19.3781C24.9633 19.3781 24.9633 19.3781 24.9633 19.3781C24.9633 19.3781 24.9633 19.3781 24.9633 19.3781C24.9633 19.3781 24.9633 19.3781 24.9633 19.3781C24.9633 19.3781 24.9633 19.3781 24.9633 19.378C24.9633 19.378 24.9633 19.378 24.9633 19.378C24.9633 19.378 24.9633 19.378 24.9633 19.378C24.9633 19.378 24.9633 19.378 24.9633 19.378C24.9633 19.378 24.9633 19.378 24.9633 19.378C24.9633 19.378 24.9633 19.378 24.9633 19.378C24.9633 19.378 24.9633 19.378 24.9633 19.378C24.9633 19.378 24.9633 19.378 24.9633 19.378C24.9633 19.378 24.9633 19.378 24.9633 19.378C24.9633 19.378 24.9633 19.378 24.9633 19.378C24.9633 19.378 24.9633 19.378 24.9633 19.378C24.9633 19.378 24.9633 19.378 24.9633 19.378C24.9633 19.378 24.9633 19.378 24.9633 19.378C24.9633 19.378 24.9633 19.378 24.9633 19.378C24.9633 19.378 24.9633 19.378 24.9633 19.378C24.9633 19.378 24.9633 19.378 24.9633 19.378C24.9633 19.378 24.9633 19.378 24.9633 19.378C24.9633 19.378 24.9633 19.378 24.9633 19.378C24.9633 19.378 24.9633 19.378 24.9633 19.378C24.9633 19.378 24.9633 19.378 24.9633 19.378C24.9633 19.378 24.9633 19.378 24.9633 19.378C24.9633 19.378 24.9633 19.378 24.9633 19.378C24.9633 19.378 24.9633 19.378 24.9633 19.378C24.9633 19.378 24.9633 19.378 24.9633 19.378C24.9633 19.378 24.9633 19.378 24.9633 19.378C24.9633 19.378 24.9633 19.378 24.9633 19.378C24.9633 19.378 24.9633 19.378 24.9633 19.378C24.9633 19.378 24.9633 19.378 24.9633 19.378C24.9633 19.378 24.9633 19.378 24.9633 19.378C24.9633 19.378 24.9633 19.378 24.9633 19.378C24.9633 19.378 24.9633 19.378 24.9633 19.378C24.9633 19.378 24.9633 19.378 24.9633 19.378C24.9633 19.378 24.9633 19.378 24.9633 19.378C24.9633 19.378 24.9633 19.378 24.9633 19.378C24.9633 19.378 24.9633 19.378 24.9633 19.378C24.9633 19.378 24.9633 19.378 24.9633 19.378C24.9633 19.378 24.9633 19.378 24.9633 19.378C24.9633 19.3779 24.9633 19.3779 24.9633 19.3779C24.9633 19.3779 24.9633 19.3779 24.9633 19.3779C24.9633 19.3779 24.9633 19.3779 24.9633 19.3779C24.9633 19.3779 24.9633 19.3779 24.9633 19.3779C24.9633 19.3779 24.9633 19.3779 24.9633 19.3779C24.9633 19.3779 24.9633 19.3779 24.9633 19.3779C24.9633 19.3779 24.9633 19.3779 24.9633 19.3779C24.9633 19.3779 24.9633 19.3779 24.9633 19.3779C24.9633 19.3779 24.9633 19.3779 24.9633 19.3779C24.9633 19.3779 24.9633 19.3779 24.9633 19.3779C24.9633 19.3779 24.9633 19.3779 24.9633 19.3779C24.9633 19.3779 24.9633 19.3779 24.9633 19.3779C24.9633 19.3779 24.9633 19.3779 24.9633 19.3779C24.9633 19.3779 24.9633 19.3779 24.9633 19.3779C24.9633 19.3779 24.9633 19.3779 24.9633 19.3779C24.9633 19.3779 24.9633 19.3779 24.9633 19.3779C24.9633 19.3779 24.9633 19.3779 24.9633 19.3779C24.9633 19.3779 24.9633 19.3779 24.9633 19.3779C24.9633 19.3779 24.9633 19.3779 24.9633 19.3779C24.9633 19.3779 24.9633 19.3779 24.9633 19.3779C24.9633 19.3779 24.9633 19.3779 24.9633 19.3779C24.9633 19.3779 24.9633 19.3779 24.9633 19.3779C24.9633 19.3779 24.9633 19.3779 24.9633 19.3779C24.9633 19.3779 24.9633 19.3779 24.9633 19.3779C24.9633 19.3779 24.9633 19.3779 24.9633 19.3779C24.9633 19.3779 24.9633 19.3779 24.9633 19.3779C24.9633 19.3779 24.9633 19.3779 24.9633 19.3779C24.9633 19.3779 24.9633 19.3779 24.9633 19.3779C24.9633 19.3779 24.9633 19.3779 24.9633 19.3779C24.9633 19.3779 24.9633 19.3779 24.9633 19.3779C24.9633 19.3779 24.9633 19.3779 24.9633 19.3779C24.9633 19.3779 24.9633 19.3779 24.9633 19.3779C24.9633 19.3779 24.9633 19.3779 24.9633 19.3779C24.9633 19.3779 24.9633 19.3779 24.9633 19.3779C24.9633 19.3779 24.9633 19.3779 24.9633 19.3779C24.9633 19.3779 24.9633 19.3779 24.9633 19.3779C24.9633 19.3778 24.9633 19.3778 24.9633 19.3778C24.9633 19.3778 24.9633 19.3778 24.9633 19.3778C24.9633 19.3778 24.9633 19.3778 24.9633 19.3778C24.9633 19.3778 24.9633 19.3778 24.9633 19.3778C24.9633 19.3778 24.9633 19.3778 24.9633 19.3778C24.9633 19.3778 24.9633 19.3778 24.9633 19.3778C24.9633 19.3778 24.9633 19.3778 24.9633 19.3778C24.9633 19.3778 24.9633 19.3778 24.9633 19.3778C24.9633 19.3778 24.9633 19.3778 24.9633 19.3778C24.9633 19.3778 24.9633 19.3778 24.9633 19.3778C24.9633 19.3778 24.9633 19.3778 24.9633 19.3778C24.9633 19.3778 24.9633 19.3778 24.9633 19.3778C24.9633 19.3778 24.9633 19.3778 24.9633 19.3778C24.9633 19.3778 24.9633 19.3778 24.9633 19.3778C24.9633 19.3778 24.9633 19.3778 24.9633 19.3778C24.9633 19.3778 24.9633 19.3778 24.9633 19.3778C24.9633 19.3778 24.9633 19.3778 24.9633 19.3778C24.9633 19.3778 24.9633 19.3778 24.9633 19.3778C24.9633 19.3778 24.9633 19.3778 24.9633 19.3778C24.9633 19.3778 24.9633 19.3778 24.9633 19.3778C24.9633 19.3778 24.9633 19.3778 24.9633 19.3778C24.9633 19.3778 24.9633 19.3778 24.9633 19.3778C24.9633 19.3778 24.9633 19.3778 24.9633 19.3778C24.9633 19.3778 24.9633 19.3778 24.9633 19.3778C24.9633 19.3778 24.9633 19.3778 24.9633 19.3778C24.9633 19.3778 24.9633 19.3778 24.9633 19.3778C24.9633 19.3778 24.9633 19.3778 24.9633 19.3778C24.9633 19.3778 24.9633 19.3778 24.9633 19.3778C24.9633 19.3778 24.9633 19.3778 24.9633 19.3778C24.9633 19.3778 24.9633 19.3778 24.9633 19.3778C24.9633 19.3778 24.9633 19.3778 24.9633 19.3778C24.9633 19.3778 24.9633 19.3778 24.9633 19.3778C24.9633 19.3778 24.9633 19.3778 24.9633 19.3778C24.9633 19.3778 24.9633 19.3778 24.9633 19.3778C24.9633 19.3778 24.9633 19.3778 24.9633 19.3778C24.9633 19.3778 24.9633 19.3778 24.9633 19.3778C24.9633 19.3777 24.9633 19.3777 24.9633 19.3777C24.9633 19.3777 24.9633 19.3777 24.9633 19.3777C24.9633 19.3777 24.9633 19.3777 24.9633 19.3777C24.9633 19.3777 24.9633 19.3777 24.9633 19.3777C24.9633 19.3777 24.9633 19.3777 24.9633 19.3777C24.9633 19.3777 24.9633 19.3777 24.9633 19.3777C24.9633 19.3777 24.9633 19.3777 24.9633 19.3777C24.9633 19.3777 24.9633 19.3777 24.9633 19.3777C24.9633 19.3777 24.9633 19.3777 24.9633 19.3777C24.9633 19.3777 24.9633 19.3777 24.9633 19.3777C24.9633 19.3777 24.9633 19.3777 24.9633 19.3777C24.9633 19.3777 24.9633 19.3777 24.9633 19.3777C24.9633 19.3777 24.9633 19.3777 24.9633 19.3777C24.9633 19.3777 24.9633 19.3777 24.9633 19.3777C24.9633 19.3777 24.9633 19.3777 24.9633 19.3777C24.9633 19.3777 24.9633 19.3777 24.9633 19.3777C24.9633 19.3777 24.9633 19.3777 24.9633 19.3777C24.9633 19.3777 24.9633 19.3777 24.9633 19.3777C24.9633 19.3777 24.9633 19.3777 24.9633 19.3777C24.9633 19.3777 24.9633 19.3777 24.9633 19.3777C24.9633 19.3777 24.9633 19.3777 24.9633 19.3777C24.9633 19.3777 24.9633 19.3777 24.9633 19.3777C24.9633 19.3777 24.9633 19.3777 24.9633 19.3777C24.9633 19.3777 24.9633 19.3777 24.9633 19.3777C24.9633 19.3777 24.9633 19.3777 24.9633 19.3777C24.9633 19.3777 24.9633 19.3777 24.9633 19.3777C24.9633 19.3777 24.9633 19.3777 24.9633 19.3777C24.9633 19.3777 24.9633 19.3777 24.9633 19.3777C24.9633 19.3777 24.9633 19.3777 24.9633 19.3777C24.9633 19.3777 24.9633 19.3777 24.9633 19.3777C24.9633 19.3777 24.9633 19.3777 24.9633 19.3777C24.9633 19.3777 24.9633 19.3777 24.9633 19.3777C24.9633 19.3777 24.9633 19.3777 24.9633 19.3777C24.9633 19.3777 24.9633 19.3777 24.9633 19.3777C24.9633 19.3777 24.9633 19.3777 24.9633 19.3777C24.9633 19.3777 24.9633 19.3777 24.9633 19.3777C24.9633 19.3776 24.9633 19.3776 24.9633 19.3776C24.9633 19.3776 24.9633 19.3776 24.9633 19.3776C24.9633 19.3776 24.9633 19.3776 24.9633 19.3776C24.9633 19.3776 24.9633 19.3776 24.9633 19.3776C24.9633 19.3776 24.9633 19.3776 24.9633 19.3776C24.9633 19.3776 24.9633 19.3776 24.9633 19.3776C24.9633 19.3776 24.9633 19.3776 24.9633 19.3776C24.9633 19.3776 24.9633 19.3776 24.9633 19.3776C24.9633 19.3776 24.9633 19.3776 24.9633 19.3776C24.9633 19.3776 24.9633 19.3776 24.9633 19.3776C24.9633 19.3776 24.9633 19.3776 24.9633 19.3776C24.9633 19.3776 24.9633 19.3776 24.9633 19.3776C24.9633 19.3776 24.9633 19.3776 24.9633 19.3776C24.9633 19.3776 24.9633 19.3776 24.9633 19.3776C24.9633 19.3776 24.9633 19.3776 24.9633 19.3776C24.9633 19.3776 24.9633 19.3776 24.9633 19.3776C24.9633 19.3776 24.9633 19.3776 24.9633 19.3776C24.9633 19.3776 24.9633 19.3776 24.9633 19.3776C24.9633 19.3776 24.9633 19.3776 24.9633 19.3776C24.9633 19.3776 24.9633 19.3776 24.9633 19.3776C24.9633 19.3776 24.9633 19.3776 24.9633 19.3776C24.9633 19.3776 24.9633 19.3776 24.9633 19.3776C24.9633 19.3776 24.9633 19.3776 24.9633 19.3776C24.9633 19.3776 24.9633 19.3776 24.9633 19.3776C24.9633 19.3776 24.9633 19.3776 24.9633 19.3776C24.9633 19.3776 24.9633 19.3776 24.9633 19.3776C24.9633 19.3776 24.9633 19.3776 24.9633 19.3776C24.9633 19.3776 24.9633 19.3776 24.9633 19.3776C24.9633 19.3776 24.9633 19.3776 24.9633 19.3776C24.9633 19.3776 24.9633 19.3776 24.9633 19.3776C24.9633 19.3776 24.9633 19.3776 24.9633 19.3776C24.9633 19.3776 24.9633 19.3776 24.9633 19.3776C24.9633 19.3776 24.9633 19.3776 24.9633 19.3776C24.9633 19.3776 24.9633 19.3776 24.9633 19.3776C24.9633 19.3776 24.9633 19.3776 24.9633 19.3776C24.9633 19.3776 24.9633 19.3776 24.9633 19.3776C24.9633 19.3776 24.9633 19.3775 24.9633 19.3775C24.9633 19.3775 24.9633 19.3775 24.9633 19.3775C24.9633 19.3775 24.9633 19.3775 24.9633 19.3775C24.9633 19.3775 24.9633 19.3775 24.9633 19.3775C24.9633 19.3775 24.9633 19.3775 24.9633 19.3775C24.9633 19.3775 24.9633 19.3775 24.9633 19.3775C24.9633 19.3775 24.9633 19.3775 24.9633 19.3775C24.9633 19.3775 24.9633 19.3775 24.9633 19.3775C24.9633 19.3775 24.9633 19.3775 24.9633 19.3775C24.9633 19.3775 24.9633 19.3775 24.9633 19.3775C24.9633 19.3775 24.9633 19.3775 24.9633 19.3775C24.9633 19.3775 24.9633 19.3775 24.9633 19.3775C24.9633 19.3775 24.9633 19.3775 24.9633 19.3775C24.9633 19.3775 24.9633 19.3775 24.9633 19.3775C24.9633 19.3775 24.9633 19.3775 24.9633 19.3775C24.9633 19.3775 24.9633 19.3775 24.9633 19.3775C24.9633 19.3775 24.9633 19.3775 24.9633 19.3775C24.9633 19.3775 24.9633 19.3775 24.9633 19.3775C24.9633 19.3775 24.9633 19.3775 24.9633 19.3775C24.9633 19.3775 24.9633 19.3775 24.9633 19.3775C24.9633 19.3775 24.9633 19.3775 24.9633 19.3775C24.9633 19.3775 24.9633 19.3775 24.9633 19.3775C24.9633 19.3775 24.9633 19.3775 24.9633 19.3775C24.9633 19.3775 24.9633 19.3775 24.9633 19.3775C24.9633 19.3775 24.9633 19.3775 24.9633 19.3775C24.9633 19.3775 24.9633 19.3775 24.9633 19.3775C24.9633 19.3775 24.9633 19.3775 24.9633 19.3775C24.9633 19.3775 24.9633 19.3775 24.9633 19.3775C24.9633 19.3775 24.9633 19.3775 24.9633 19.3775C24.9633 19.3775 24.9633 19.3775 24.9633 19.3775C24.9633 19.3775 24.9633 19.3775 24.9633 19.3775C24.9633 19.3775 24.9633 19.3775 24.9633 19.3775C24.9633 19.3775 24.9633 19.3775 24.9633 19.3775C24.9633 19.3775 24.9633 19.3775 24.9633 19.3775C24.9633 19.3775 24.9633 19.3775 24.9633 19.3775C24.9633 19.3775 24.9633 19.3775 24.9633 19.3775C24.9633 19.3775 24.9633 19.3774 24.9633 19.3774C24.9633 19.3774 24.9633 19.3774 24.9633 19.3774C24.9633 19.3774 24.9633 19.3774 24.9633 19.3774C24.9633 19.3774 24.9633 19.3774 24.9633 19.3774C24.9633 19.3774 24.9633 19.3774 24.9633 19.3774C24.9633 19.3774 24.9633 19.3774 24.9633 19.3774C24.9633 19.3774 24.9633 19.3774 24.9633 19.3774C24.9633 19.3774 24.9633 19.3774 24.9633 19.3774C24.9633 19.3774 24.9633 19.3774 24.9633 19.3774C24.9633 19.3774 24.9633 19.3774 24.9633 19.3774C24.9633 19.3774 24.9633 19.3774 24.9633 19.3774C24.9633 19.3774 24.9633 19.3774 24.9633 19.3774C24.9633 19.3774 24.9633 19.3774 24.9633 19.3774C24.9633 19.3774 24.9633 19.3774 24.9633 19.3774C24.9633 19.3774 24.9633 19.3774 24.9633 19.3774C24.9633 19.3774 24.9633 19.3774 24.9633 19.3774C24.9633 19.3774 24.9633 19.3774 24.9633 19.3774C24.9633 19.3774 24.9633 19.3774 24.9633 19.3774C24.9633 19.3774 24.9633 19.3774 24.9633 19.3774C24.9633 19.3774 24.9633 19.3774 24.9633 19.3774C24.9633 19.3774 24.9633 19.3774 24.9633 19.3774C24.9633 19.3774 24.9633 19.3774 24.9633 19.3774C24.9633 19.3774 24.9633 19.3774 24.9633 19.3774C24.9633 19.3774 24.9633 19.3774 24.9633 19.3774C24.9633 19.3774 24.9633 19.3774 24.9633 19.3774C24.9633 19.3774 24.9633 19.3774 24.9633 19.3774C24.9633 19.3774 24.9633 19.3774 24.9633 19.3774C24.9633 19.3774 24.9633 19.3774 24.9633 19.3774C24.9633 19.3774 24.9633 19.3774 24.9633 19.3774C24.9633 19.3774 24.9633 19.3774 24.9633 19.3774C24.9633 19.3774 24.9633 19.3774 24.9633 19.3774C24.9633 19.3774 24.9633 19.3774 24.9633 19.3774C24.9633 19.3774 24.9633 19.3774 24.9633 19.3774C24.9633 19.3774 24.9633 19.3774 24.9633 19.3774C24.9633 19.3774 24.9633 19.3774 24.9633 19.3774C24.9633 19.3774 24.9633 19.3774 24.9633 19.3774C24.9633 19.3774 24.9633 19.3773 24.9633 19.3773C24.9633 19.3773 24.9633 19.3773 24.9633 19.3773C24.9633 19.3773 24.9633 19.3773 24.9633 19.3773C24.9633 19.3773 24.9633 19.3773 24.9633 19.3773C24.9633 19.3773 24.9633 19.3773 24.9633 19.3773C24.9633 19.3773 24.9633 19.3773 24.9633 19.3773C24.9633 19.3773 24.9633 19.3773 24.9633 19.3773C24.9633 19.3773 24.9633 19.3773 24.9633 19.3773C24.9633 19.3773 24.9633 19.3773 24.9633 19.3773C24.9633 19.3773 24.9633 19.3773 24.9633 19.3773C24.9633 19.3773 24.9633 19.3773 24.9633 19.3773C24.9633 19.3773 24.9633 19.3773 24.9633 19.3773C24.9633 19.3773 24.9633 19.3773 24.9633 19.3773C24.9633 19.3773 24.9633 19.3773 24.9633 19.3773C24.9633 19.3773 24.9633 19.3773 24.9633 19.3773C24.9633 19.3773 24.9633 19.3773 24.9633 19.3773C24.9633 19.3773 24.9633 19.3773 24.9633 19.3773C24.9633 19.3773 24.9633 19.3773 24.9633 19.3773C24.9633 19.3773 24.9633 19.3773 24.9633 19.3773C24.9633 19.3773 24.9633 19.3773 24.9633 19.3773C24.9633 19.3773 24.9633 19.3773 24.9633 19.3773C24.9633 19.3773 24.9633 19.3773 24.9633 19.3773C24.9633 19.3773 24.9633 19.3773 24.9633 19.3773C24.9633 19.3773 24.9633 19.3773 24.9633 19.3773C24.9633 19.3773 24.9633 19.3773 24.9633 19.3773C24.9633 19.3773 24.9633 19.3773 24.9633 19.3773C24.9633 19.3773 24.9633 19.3773 24.9633 19.3773C24.9633 19.3773 24.9633 19.3773 24.9633 19.3773C24.9633 19.3773 24.9633 19.3773 24.9633 19.3773C24.9633 19.3773 24.9633 19.3773 24.9633 19.3773C24.9633 19.3773 24.9633 19.3773 24.9633 19.3773C24.9633 19.3773 24.9633 19.3773 24.9633 19.3773C24.9633 19.3773 24.9633 19.3773 24.9633 19.3773C24.9633 19.3773 24.9633 19.3773 24.9633 19.3773C24.9633 19.3773 24.9633 19.3773 24.9633 19.3773C24.9633 19.3773 24.9633 19.3773 24.9633 19.3773C24.9633 19.3773 24.9633 19.3772 24.9633 19.3772C24.9633 19.3772 24.9633 19.3772 24.9633 19.3772C24.9633 19.3772 24.9633 19.3772 24.9633 19.3772C24.9633 19.3772 24.9633 19.3772 24.9633 19.3772C24.9633 19.3772 24.9633 19.3772 24.9633 19.3772C24.9633 19.3772 24.9633 19.3772 24.9633 19.3772C24.9633 19.3772 24.9633 19.3772 24.9633 19.3772C24.9633 19.3772 24.9633 19.3772 24.9633 19.3772C24.9633 19.3772 24.9633 19.3772 24.9633 19.3772C24.9633 19.3772 24.9633 19.3772 24.9633 19.3772C24.9633 19.3772 24.9633 19.3772 24.9633 19.3772C24.9633 19.3772 24.9633 19.3772 24.9633 19.3772C24.9633 19.3772 24.9633 19.3772 24.9633 19.3772C24.9633 19.3772 24.9633 19.3772 24.9633 19.3772C24.9633 19.3772 24.9633 19.3772 24.9633 19.3772C24.9633 19.3772 24.9633 19.3772 24.9633 19.3772C24.9633 19.3772 24.9633 19.3772 24.9633 19.3772C24.9633 19.3772 24.9633 19.3772 24.9633 19.3772C24.9633 19.3772 24.9633 19.3772 24.9633 19.3772C24.9633 19.3772 24.9633 19.3772 24.9633 19.3772C24.9633 19.3772 24.9633 19.3772 24.9633 19.3772C24.9633 19.3772 24.9633 19.3772 24.9633 19.3772C24.9633 19.3772 24.9633 19.3772 24.9633 19.3772C24.9633 19.3772 24.9633 19.3772 24.9633 19.3772C24.9633 19.3772 24.9633 19.3772 24.9633 19.3772C24.9633 19.3772 24.9633 19.3772 24.9633 19.3772C24.9633 19.3772 24.9633 19.3772 24.9633 19.3772H22.9633ZM14.4633 10.8772C19.1578 10.8772 22.9633 14.6828 22.9633 19.3772H24.9633C24.9633 13.5782 20.2623 8.87718 14.4633 8.87718V10.8772ZM5.96334 19.3772C5.96334 14.6828 9.76892 10.8772 14.4633 10.8772V8.87718C8.66435 8.87718 3.96334 13.5782 3.96334 19.3772H5.96334ZM5.96338 19.401C5.96336 19.3931 5.96334 19.3851 5.96334 19.3772H3.96334C3.96334 19.3869 3.96336 19.3967 3.96338 19.4065L5.96338 19.401ZM5.95917 19.312C5.47624 14.066 7.90718 10.571 10.7092 6.59802L9.07476 5.44533C6.30558 9.37179 3.40927 13.4303 3.96759 19.4954L5.95917 19.312ZM10.7092 6.59802C10.942 6.26789 11.1775 5.93404 11.4122 5.5974L9.77171 4.45339C9.54049 4.78496 9.30808 5.11449 9.07476 5.44533L10.7092 6.59802ZM11.4122 5.5974C12.1087 4.5986 12.6304 3.74783 12.9957 3.03047C13.3545 2.32607 13.5922 1.69335 13.6668 1.14287C13.7403 0.600264 13.675 -0.0790478 13.131 -0.548376C12.6274 -0.98282 11.9884 -0.98834 11.5427 -0.925339C10.6248 -0.795613 9.49776 -0.232407 8.44269 0.457852C7.35394 1.17015 6.21334 2.10328 5.25323 3.10797L6.69916 4.48974C7.54937 3.60005 8.57116 2.7638 9.53765 2.13149C10.5378 1.47715 11.3588 1.12053 11.8226 1.05498C12.0677 1.02034 11.9779 1.09832 11.8245 0.965985C11.6307 0.798765 11.7166 0.640171 11.6849 0.874369C11.6542 1.10069 11.5303 1.50084 11.2135 2.12288C10.9034 2.73195 10.4357 3.50117 9.77171 4.45339L11.4122 5.5974ZM5.25323 3.10797C2.79704 5.67819 -0.0703203 10.435 -0.815688 16.1873C-1.56757 21.9899 -0.150726 28.7566 5.90516 35.2183L7.36446 33.8507C1.73021 27.8389 0.490172 21.6734 1.16773 16.4443C1.8518 11.165 4.5002 6.79078 6.69915 4.48974L5.25323 3.10797ZM5.94211 35.2557C7.43045 36.6852 8.67313 37.6417 9.67895 38.1912C10.1813 38.4656 10.6631 38.66 11.1147 38.7445C11.5621 38.8283 12.0674 38.8188 12.5218 38.5681C13.5218 38.0164 13.4949 36.8556 13.3391 36.1264C13.1601 35.289 12.7003 34.3221 12.0388 33.3455L10.3829 34.4671C10.9602 35.3195 11.2767 36.0458 11.3832 36.5443C11.5128 37.151 11.2805 36.9688 11.5556 36.817C11.6477 36.7662 11.6608 36.812 11.4826 36.7787C11.3085 36.7461 11.0314 36.6511 10.6378 36.4361C9.85178 36.0067 8.75489 35.1842 7.32751 33.8133L5.94211 35.2557ZM12.0388 33.3455C9.15163 29.0828 7.46504 25.5945 6.61216 22.6558L4.69141 23.2132C5.62056 26.4148 7.4213 30.0945 10.3829 34.4671L12.0388 33.3455ZM14.4633 27.8772C10.8959 27.8772 7.83948 25.6792 6.57895 22.5598L4.72463 23.3091C6.28009 27.1584 10.053 29.8772 14.4633 29.8772V27.8772ZM22.245 22.803C20.9265 25.7931 17.9372 27.8772 14.4633 27.8772V29.8772C18.758 29.8772 22.4483 27.2989 24.075 23.6099L22.245 22.803ZM18.4116 34.4337C21.3246 30.2109 23.1365 26.6328 24.1145 23.5048L22.2056 22.908C21.3057 25.7862 19.6048 29.1819 16.7653 33.2981L18.4116 34.4337ZM21.4724 33.806C20.0334 35.1648 18.9295 35.9778 18.1399 36.4005C17.7445 36.6121 17.4665 36.7048 17.2922 36.7358C17.1137 36.7677 17.1272 36.722 17.2188 36.7735C17.4927 36.9277 17.2587 37.1079 17.3936 36.5023C17.5043 36.0048 17.827 35.2812 18.4116 34.4337L16.7653 33.2981C16.0955 34.269 15.6274 35.232 15.4413 36.0677C15.2793 36.7956 15.2425 37.9561 16.2377 38.5163C16.6899 38.7709 17.1952 38.7847 17.6433 38.7048C18.0956 38.6241 18.579 38.4339 19.0837 38.1637C20.0942 37.6229 21.345 36.677 22.8455 35.2603L21.4724 33.806ZM22.3511 4.48894C24.5304 6.80867 27.1413 11.2054 27.7803 16.4903C28.4132 21.7249 27.1205 27.8796 21.4352 33.8431L22.8827 35.2232C28.9936 28.8134 30.4681 22.0591 29.7658 16.2503C29.0696 10.4918 26.243 5.71066 23.8088 3.11956L22.3511 4.48894ZM19.279 4.42635C18.6231 3.4685 18.1621 2.69532 17.8571 2.08362C17.5457 1.4589 17.4252 1.0577 17.3965 0.831129C17.3667 0.596669 17.4513 0.755991 17.256 0.92155C17.1015 1.05257 17.0125 0.973828 17.2572 1.01056C17.7204 1.08006 18.5383 1.44368 19.5329 2.10654C20.4939 2.74708 21.5086 3.59202 22.3511 4.48894L23.8088 3.11956C22.8573 2.10671 21.7247 1.16388 20.6421 0.44231C19.593 -0.256932 18.4707 -0.82974 17.554 -0.967299C17.1088 -1.0341 16.4699 -1.03404 15.9626 -0.603911C15.4146 -0.139245 15.3435 0.539485 15.4124 1.08269C15.4822 1.63379 15.7146 2.26852 16.0672 2.97596C16.4264 3.69641 16.9408 4.55161 17.6288 5.55631L19.279 4.42635Z" fill="#F7F7F7" mask="url(#path-1-inside-1_721_9)"/>
</svg>
