<svg width="251" height="507" viewBox="0 0 251 507" fill="none" xmlns="http://www.w3.org/2000/svg">
<path d="M60.809 143.183L22.7285 166.52L34.1985 105.465L75.6242 49.9197C66.5546 72.7071 60.809 103.795 60.809 143.183Z" fill="black"/>
<path d="M60.809 323.591V143.183C60.809 103.795 66.5546 72.7071 75.6242 49.9197C100.723 -13.1401 151.277 -12.636 175.968 51.4322C184.695 74.0757 190.191 104.659 190.191 143.183V323.591V504H163.122H93.3839H60.809V455.628V323.591Z" fill="black"/>
<path d="M190.191 143.183C190.191 104.659 184.695 74.0757 175.968 51.4322L216.801 105.006L228.272 165.142L190.191 143.183Z" fill="black"/>
<path d="M248 503.925L190.191 504V323.591L248 431.394V503.925Z" fill="black"/>
<path d="M60.809 504H3V431.394L60.809 323.591V455.628V504Z" fill="black"/>
<path d="M60.809 143.183V323.591M60.809 143.183L22.7285 166.52L34.1985 105.465L75.6242 49.9197M60.809 143.183C60.809 103.795 66.5546 72.7071 75.6242 49.9197M60.809 504H3V431.394L60.809 323.591M60.809 504V455.628V323.591M60.809 504H93.3839H163.122H190.191M190.191 504L248 503.925V431.394L190.191 323.591M190.191 504V323.591M190.191 143.183V323.591M190.191 143.183C190.191 -4.33968 109.593 -35.4272 75.6242 49.9197M190.191 143.183L228.272 165.142L216.801 105.006L175.968 51.4322M190.191 143.183C190.191 104.659 184.695 74.0757 175.968 51.4322M75.6242 49.9197C100.723 -13.1401 151.277 -12.636 175.968 51.4322" stroke="white" stroke-width="5"/>
</svg>
